<svg width="26" height="24" viewBox="0 0 26 24" fill="none" xmlns="http://www.w3.org/2000/svg">
<path fill-rule="evenodd" clip-rule="evenodd" d="M13.1402 24C6.19151 24 0.55957 18.6272 0.55957 12C0.55957 5.3728 6.19151 0 13.1402 0C20.0881 0 25.7209 5.3728 25.7209 12C25.7209 18.6272 20.0881 24 13.1402 24ZM13.1402 2C7.34976 2 2.65634 6.4776 2.65634 12C2.65634 15.3432 4.39247 18.2792 7.03525 20.092L7.34809 17.2536H7.39254C7.6668 14.8112 10.1192 12.8912 13.1402 12.8912C16.1604 12.8912 18.6136 14.8112 18.8871 17.2536H18.9357L19.2477 20.0896C21.8888 18.2768 23.6241 15.3416 23.6241 12C23.6241 6.4776 18.9298 2 13.1402 2ZM13.1486 10.8248C11.836 10.8248 10.7725 9.8008 10.7725 8.5376C10.7725 7.2744 11.836 6.2504 13.1486 6.2504C14.4612 6.2504 15.5247 7.2744 15.5247 8.5376C15.5247 9.8008 14.4612 10.8248 13.1486 10.8248Z" fill="#29292D" fill-opacity="0.2"/>
</svg>
