<svg width="26" height="26" viewBox="0 0 26 26" fill="inherit" xmlns="http://www.w3.org/2000/svg">
<path d="M13 0C5.824 0 0 5.824 0 13C0 20.176 5.824 26 13 26C20.176 26 26 20.176 26 13C26 5.824 20.176 0 13 0ZM13 23.4C7.267 23.4 2.6 18.733 2.6 13C2.6 7.267 7.267 2.6 13 2.6C18.733 2.6 23.4 7.267 23.4 13C23.4 18.733 18.733 23.4 13 23.4ZM5.85 20.15L15.613 15.613L20.15 5.85L10.387 10.387L5.85 20.15ZM13 11.57C13.793 11.57 14.43 12.207 14.43 13C14.43 13.793 13.793 14.43 13 14.43C12.207 14.43 11.57 13.793 11.57 13C11.57 12.207 12.207 11.57 13 11.57Z" fill="inherit"/>
</svg>
