<svg width="34" height="25" viewBox="0 0 34 25" fill="inherit" xmlns="http://www.w3.org/2000/svg">
<path fill-rule="evenodd" clip-rule="evenodd" d="M33.9901 10.9608C33.977 11.0495 33.9498 11.1313 33.912 11.2063C33.7598 11.5097 33.4341 11.7134 33.013 11.8779C32.5943 12.0526 31.7036 12.3858 30.9502 12.6636C28.1298 13.7886 25.0092 14.946 21.9183 15.938C21.4511 16.2209 20.8383 16.3948 20.2132 16.405C19.7238 16.4135 19.3052 16.3138 18.9827 16.1383C18.861 16.1059 18.7541 16.0556 18.6784 15.967C18.2877 15.5025 17.6125 14.9144 17.0976 14.3204C16.8952 14.0869 16.7357 13.8576 16.6156 13.6386C16.5111 13.6395 16.4207 13.5926 16.359 13.5142C16.3277 13.4758 16.3039 13.429 16.289 13.3778C16.2816 13.3514 16.2767 13.3241 16.2734 13.296L16.2718 13.2525L16.2734 13.2074C16.2899 13.0224 16.4091 12.8656 16.5605 12.8043C16.5687 12.794 16.5654 12.7812 16.5745 12.7719C17.2662 12.0534 18.5008 12.4685 19.6893 12.7991C20.1548 12.9287 20.6557 12.9159 21.0958 12.8545C21.5259 12.6918 21.9446 12.5239 22.3698 12.3577C21.6296 11.5838 20.8942 10.7836 20.1532 9.94409C20.1384 9.94494 20.1244 9.95261 20.1096 9.95176C19.8225 9.94068 19.6251 9.67052 19.6704 9.34751C19.7156 9.02536 19.9854 8.77991 20.2708 8.79611C20.8005 8.73048 21.3219 8.6623 21.8352 8.59583L21.8903 8.59668C21.9248 8.59924 21.9767 8.60179 22.04 8.60776C22.1667 8.61884 22.3427 8.64014 22.5401 8.68105C22.9332 8.76372 23.4095 8.92224 23.7557 9.23331C24.3841 9.84097 26.155 10.8091 28.2334 10.0378C29.0814 9.71228 29.9031 9.40802 30.6738 9.14979L30.6977 9.19837C30.7635 9.189 30.8589 9.17621 30.9995 9.16428C31.1163 9.15491 31.2528 9.14809 31.4009 9.14723C31.4749 9.14723 31.5514 9.14894 31.6304 9.1532C31.7093 9.15661 31.7899 9.16258 31.8722 9.17025C32.517 9.24184 33.2877 9.4549 33.6743 9.97477C33.7664 10.1069 33.8363 10.2313 33.8873 10.3472C33.9128 10.406 33.9342 10.4623 33.9506 10.5168C33.9671 10.5714 33.9786 10.6242 33.9868 10.6753C33.991 10.7009 33.9942 10.7265 33.9959 10.7503C33.9984 10.775 33.9992 10.7998 34 10.8236C34 10.8713 33.9967 10.9165 33.9901 10.9608ZM17.5203 2.07779C12.0005 2.07779 7.52611 6.74388 7.52611 12.5C7.52611 14.6323 8.14299 16.613 9.19661 18.2638C12.4455 17.6945 15.5907 16.3411 15.5907 16.3411L15.608 16.342C15.7832 16.1246 16.039 15.9815 16.3326 15.9959C16.8327 16.0207 17.2193 16.463 17.1954 16.9846C17.1741 17.4644 16.8081 17.8283 16.3598 17.8649C16.2627 17.9271 16.1854 17.9851 16.0588 18.0558C14.9879 18.6558 12.6832 19.3427 10.3695 19.774C12.1848 21.7137 14.7156 22.9222 17.5203 22.9222C21.7019 22.9222 25.2782 20.2427 26.7694 16.4425L29.2048 15.24C28.0064 20.824 23.2351 25 17.5203 25C13.6529 25 10.2223 23.0799 8.03195 20.1123C7.28265 20.1848 6.57941 20.2155 5.97816 20.1848C3.02949 20.0331 -0.0869748 18.4266 0.00185543 15.7522C0.0906857 13.0778 2.97767 10.0745 2.97767 10.0745L2.98014 10.0762C3.12572 9.80688 3.40537 9.6262 3.72532 9.6424C4.17688 9.66455 4.52562 10.0591 4.50506 10.5236C4.49272 10.8125 4.32986 11.0478 4.10614 11.1884C1.97093 13.5858 1.6995 14.4082 1.64933 15.459C1.59751 16.526 2.27525 18.3431 6.23396 18.5058C6.48811 18.5169 6.74884 18.5161 7.01287 18.5075C6.07439 16.7246 5.53812 14.6784 5.53812 12.5C5.53812 5.59675 10.9033 0 17.5203 0C22.5269 0 26.8113 3.20618 28.6036 7.75551C27.9785 7.83476 27.225 8.06232 26.646 8.2626C25.0882 4.62007 21.5917 2.07779 17.5203 2.07779Z" fill="inherit"/>
</svg>
