<svg width="15" height="16" viewBox="0 0 15 16" fill="none" xmlns="http://www.w3.org/2000/svg">
<path d="M14.5833 2C14.8135 2 15 1.77625 15 1.5V0.5C15 0.22375 14.8135 0 14.5833 0H0.416667C0.186458 0 0 0.22375 0 0.5V1.5C0 1.77625 0.186458 2 0.416667 2H0.832812V14H0.416667C0.186458 14 0 14.2238 0 14.5V15.5C0 15.7763 0.186458 16 0.416667 16H6.66667V13.5C6.66667 13.225 6.85417 13 7.08333 13H7.91667C8.14583 13 8.33333 13.225 8.33333 13.5V16H14.5833C14.8135 16 15 15.7763 15 15.5V14.5C15 14.2238 14.8135 14 14.5833 14H14.1667V2H14.5833ZM6.66667 3.4C6.66667 3.2 6.83333 3 7 3H8C8.16667 3 8.33333 3.2 8.33333 3.4V4.6C8.33333 4.8 8.16667 5 8 5H7C6.83333 5 6.66667 4.8 6.66667 4.6V3.4ZM6.66667 6.4C6.66667 6.2 6.83333 6 7 6H8C8.16667 6 8.33333 6.2 8.33333 6.4V7.6C8.33333 7.8 8.16667 8 8 8H7C6.83333 8 6.66667 7.8 6.66667 7.6V6.4ZM3.33333 3.4C3.33333 3.2 3.5 3 3.66667 3H4.66667C4.83333 3 5 3.2 5 3.4V4.6C5 4.8 4.83333 5 4.66667 5H3.66667C3.5 5 3.33333 4.8 3.33333 4.6V3.4ZM4.66667 8H3.66667C3.5 8 3.33333 7.8 3.33333 7.6V6.4C3.33333 6.2 3.5 6 3.66667 6H4.66667C4.83333 6 5 6.2 5 6.4V7.6C5 7.8 4.83333 8 4.66667 8ZM5 12C5 10.3431 6.11927 9 7.5 9C8.88073 9 10 10.3431 10 12H5ZM11.6667 7.6C11.6667 7.8 11.5 8 11.3333 8H10.3333C10.1667 8 10 7.8 10 7.6V6.4C10 6.2 10.1667 6 10.3333 6H11.3333C11.5 6 11.6667 6.2 11.6667 6.4V7.6ZM11.6667 4.6C11.6667 4.8 11.5 5 11.3333 5H10.3333C10.1667 5 10 4.8 10 4.6V3.4C10 3.2 10.1667 3 10.3333 3H11.3333C11.5 3 11.6667 3.2 11.6667 3.4V4.6Z" fill="black"/>
</svg>
