<svg width="12" height="12" viewBox="0 0 12 12" fill="none" xmlns="http://www.w3.org/2000/svg">
<circle cx="6" cy="6" r="6" fill="#C9AE4F"/>
<path d="M8.83333 3.75C8.92542 3.75 9 3.66609 9 3.5625V3.1875C9 3.08391 8.92542 3 8.83333 3H3.16667C3.07458 3 3 3.08391 3 3.1875V3.5625C3 3.66609 3.07458 3.75 3.16667 3.75H3.33312V8.25H3.16667C3.07458 8.25 3 8.33391 3 8.4375V8.8125C3 8.91609 3.07458 9 3.16667 9H5.66667V8.0625C5.66667 7.95937 5.74167 7.875 5.83333 7.875H6.16667C6.25833 7.875 6.33333 7.95937 6.33333 8.0625V9H8.83333C8.92542 9 9 8.91609 9 8.8125V8.4375C9 8.33391 8.92542 8.25 8.83333 8.25H8.66667V3.75H8.83333ZM5.66667 4.275C5.66667 4.2 5.73333 4.125 5.8 4.125H6.2C6.26667 4.125 6.33333 4.2 6.33333 4.275V4.725C6.33333 4.8 6.26667 4.875 6.2 4.875H5.8C5.73333 4.875 5.66667 4.8 5.66667 4.725V4.275ZM5.66667 5.4C5.66667 5.325 5.73333 5.25 5.8 5.25H6.2C6.26667 5.25 6.33333 5.325 6.33333 5.4V5.85C6.33333 5.925 6.26667 6 6.2 6H5.8C5.73333 6 5.66667 5.925 5.66667 5.85V5.4ZM4.33333 4.275C4.33333 4.2 4.4 4.125 4.46667 4.125H4.86667C4.93333 4.125 5 4.2 5 4.275V4.725C5 4.8 4.93333 4.875 4.86667 4.875H4.46667C4.4 4.875 4.33333 4.8 4.33333 4.725V4.275ZM4.86667 6H4.46667C4.4 6 4.33333 5.925 4.33333 5.85V5.4C4.33333 5.325 4.4 5.25 4.46667 5.25H4.86667C4.93333 5.25 5 5.325 5 5.4V5.85C5 5.925 4.93333 6 4.86667 6ZM5 7.5C5 6.87867 5.44771 6.375 6 6.375C6.55229 6.375 7 6.87867 7 7.5H5ZM7.66667 5.85C7.66667 5.925 7.6 6 7.53333 6H7.13333C7.06667 6 7 5.925 7 5.85V5.4C7 5.325 7.06667 5.25 7.13333 5.25H7.53333C7.6 5.25 7.66667 5.325 7.66667 5.4V5.85ZM7.66667 4.725C7.66667 4.8 7.6 4.875 7.53333 4.875H7.13333C7.06667 4.875 7 4.8 7 4.725V4.275C7 4.2 7.06667 4.125 7.13333 4.125H7.53333C7.6 4.125 7.66667 4.2 7.66667 4.275V4.725Z" fill="white"/>
</svg>
