<svg width="12" height="16" viewBox="0 0 12 16" fill="inherit" xmlns="http://www.w3.org/2000/svg">
<g clip-path="url(#clip0_29_284)">
<path d="M5.38338 15.6772C0.842813 9.09472 0 8.41916 0 6C0 2.68628 2.68628 0 6 0C9.31372 0 12 2.68628 12 6C12 8.41916 11.1572 9.09472 6.61662 15.6772C6.31866 16.1076 5.68131 16.1076 5.38338 15.6772ZM6 8.5C7.38072 8.5 8.5 7.38072 8.5 6C8.5 4.61928 7.38072 3.5 6 3.5C4.61928 3.5 3.5 4.61928 3.5 6C3.5 7.38072 4.61928 8.5 6 8.5Z" />
</g>
<defs>
<clipPath id="clip0_29_284">
<rect width="12" height="16" fill="white"/>
</clipPath>
</defs>
</svg>
