<svg width="202" height="185" viewBox="0 0 202 185" fill="none" xmlns="http://www.w3.org/2000/svg">
<path d="M23.6099 173.822C23.9938 172.304 22.9921 170.786 21.8712 169.692C20.7502 168.597 19.4087 167.622 18.8218 166.161C17.8685 163.809 19.113 160.746 17.4978 158.792C16.549 157.64 14.85 157.26 14.0115 156.029C13.6214 155.347 13.3611 154.599 13.2437 153.822C12.3296 149.914 10.3817 146.323 7.60379 143.425C7.43879 146.916 8.21458 150.386 9.85003 153.474C10.5076 154.709 11.3107 155.91 11.5358 157.287C11.8977 159.528 10.6532 161.841 11.2225 164.039C11.8668 166.554 14.7044 168.222 14.8544 170.813C14.978 173.019 13.0892 174.934 13.2348 177.123C13.352 178.059 13.6909 178.953 14.2234 179.731C15.9356 182.538 18.4334 184.462 22.2021 184.378L26.8226 184.515L23.6099 173.822Z" fill="#F5F5F5"/>
<path d="M27.7573 184.612C28.1797 184.675 28.61 184.663 29.0282 184.577C29.5397 184.498 30.0423 184.37 30.5287 184.193C31.1976 183.955 31.8224 183.607 32.3777 183.165C32.7081 182.891 32.9671 182.541 33.1324 182.145C33.2698 181.698 33.3397 181.232 33.3398 180.764C33.3459 180.264 33.3798 179.764 33.4413 179.268C33.5288 178.741 33.7176 178.236 33.9973 177.781C34.5357 176.819 35.436 175.91 35.7184 174.608C36.0008 173.306 35.7934 171.96 35.5728 170.561C35.3521 169.162 35.1315 167.671 35.6566 166.223C36.1818 164.776 37.1482 163.465 37.6425 161.832C38.1368 160.199 37.894 158.421 37.9911 156.673C38.0188 155.787 38.2181 154.915 38.5781 154.105C38.9488 153.284 39.4607 152.512 39.8623 151.651C40.6698 149.886 40.8022 147.931 41.0185 145.998C41.1214 145.024 41.2259 144.04 41.3318 143.046C41.3956 142.046 41.5627 141.055 41.8305 140.089C42.1351 139.114 42.4976 138.157 42.9161 137.225C43.134 136.742 43.3111 136.242 43.4456 135.729C43.5206 135.202 43.5677 134.672 43.5869 134.14C43.6302 133.072 43.5829 132.001 43.4456 130.941C43.3133 129.877 43.1147 128.823 43.0043 127.755C43.0043 127.688 43.0043 127.627 43.0043 127.569L42.9779 127.357L42.7881 127.455C41.8117 127.958 40.9646 128.68 40.3124 129.564C39.6797 130.43 39.1717 131.381 38.8031 132.388C38.0441 134.379 37.7749 136.457 37.3998 138.447C37.0247 140.438 36.5172 142.388 35.5331 144.043C35.03 144.868 34.4254 145.623 33.8914 146.426C33.3228 147.214 32.9369 148.118 32.7617 149.074C32.4969 151.029 33.5869 152.741 33.3707 154.471C33.2682 155.321 32.9853 156.14 32.541 156.872C32.1262 157.613 31.6584 158.302 31.173 158.99C30.6994 159.665 30.2887 160.381 29.9461 161.13C29.6247 161.864 29.4365 162.648 29.3901 163.447C29.2886 165.005 29.5181 166.483 29.4122 167.86C29.2907 169.189 28.9099 170.482 28.2912 171.664C27.7396 172.803 27.1262 173.831 26.6099 174.833C26.3537 175.312 26.1224 175.804 25.917 176.307C25.7352 176.781 25.6022 177.271 25.5199 177.772C25.3931 178.65 25.3931 179.542 25.5199 180.42C25.6441 181.638 26.1022 182.799 26.8438 183.774C26.9554 183.92 27.081 184.054 27.2189 184.175C27.3104 184.272 27.4126 184.358 27.5234 184.431C27.6955 184.559 27.7882 184.617 27.7882 184.617C27.4643 184.354 27.1685 184.058 26.9056 183.734C26.189 182.758 25.7499 181.607 25.6346 180.402C25.5246 179.538 25.5394 178.663 25.6787 177.803C25.7596 177.313 25.8942 176.833 26.0803 176.373C26.2857 175.876 26.517 175.39 26.7732 174.917C27.2939 173.928 27.9161 172.9 28.481 171.753C29.1181 170.552 29.511 169.236 29.6372 167.882C29.752 166.457 29.5269 164.979 29.6372 163.469C29.6655 162.688 29.8329 161.919 30.1315 161.197C30.473 160.463 30.8791 159.762 31.3451 159.1C31.8084 158.416 32.3027 157.728 32.7308 156.969C33.2001 156.209 33.5011 155.357 33.6134 154.471C33.8252 152.627 32.7308 150.905 33.0132 149.087C33.1854 148.175 33.5593 147.312 34.1076 146.563C34.6284 145.773 35.2418 145.018 35.7581 144.171C36.7952 142.468 37.2939 140.477 37.6646 138.483C38.0353 136.488 38.3133 134.423 39.0591 132.477C39.4184 131.495 39.9146 130.57 40.533 129.727C41.1547 128.877 41.9662 128.183 42.9028 127.702L42.691 127.582C42.691 127.644 42.691 127.706 42.691 127.772C42.8102 128.849 43.0088 129.908 43.1323 130.958C43.2694 132.003 43.3166 133.057 43.2735 134.109C43.2471 134.621 43.2162 135.164 43.1411 135.65C43.0094 136.143 42.8382 136.626 42.6292 137.093C42.2073 138.036 41.8404 139.002 41.5304 139.988C41.2604 140.969 41.0919 141.977 41.0273 142.993C40.9258 143.99 40.8199 144.974 40.7184 145.95C40.5066 147.891 40.3742 149.833 39.5931 151.519C39.2091 152.357 38.7104 153.134 38.3177 153.977C37.9477 154.812 37.7424 155.711 37.7131 156.625C37.6204 158.39 37.8631 160.155 37.3909 161.731C36.9188 163.306 35.9214 164.621 35.4183 166.113C34.9152 167.604 35.1182 169.18 35.3477 170.561C35.5772 171.942 35.8111 173.302 35.5198 174.533C35.2286 175.764 34.3857 176.678 33.834 177.662C33.5473 178.148 33.3612 178.687 33.2868 179.246C33.2265 179.748 33.1956 180.254 33.1941 180.76C33.1964 181.208 33.134 181.654 33.0088 182.084C32.8553 182.463 32.6095 182.798 32.2939 183.059C31.754 183.499 31.1458 183.848 30.4934 184.092C30.0142 184.274 29.5194 184.411 29.015 184.502C28.7048 184.559 28.3904 184.59 28.075 184.595L27.7573 184.612Z" fill="#E0E0E0"/>
<path d="M42.0429 130.12C42.02 130.163 42.005 130.209 41.9988 130.257C41.9723 130.367 41.9414 130.504 41.8973 130.676C41.809 131.038 41.7031 131.59 41.5354 132.274C41.3677 132.958 40.9441 133.739 40.591 134.692C40.238 135.645 39.8496 136.74 39.5098 137.975C39.17 139.211 38.8611 140.579 38.5434 142.044C38.2693 143.61 37.7807 145.131 37.0915 146.563C36.7164 147.318 36.2927 148.081 35.9617 148.911C35.6344 149.763 35.415 150.652 35.3086 151.559C35.0869 153.438 34.7658 155.305 34.3466 157.15L31.7958 167.838C30.9927 171.113 30.2645 174.065 29.6555 176.554C29.0465 179.043 28.5787 181.055 28.2389 182.446C28.08 183.125 27.9565 183.659 27.8682 184.048C27.8329 184.22 27.802 184.356 27.78 184.489C27.7752 184.537 27.7752 184.586 27.78 184.634C27.8024 184.591 27.8187 184.545 27.8285 184.498L27.9476 184.083C28.0491 183.699 28.1948 183.169 28.389 182.494C28.7508 181.086 29.2716 179.092 29.8982 176.634C30.5249 174.176 31.2751 171.206 32.1047 167.936C32.9344 164.665 33.7287 161.016 34.6378 157.225C35.0571 155.372 35.3782 153.498 35.5999 151.612C35.6969 150.725 35.9059 149.855 36.2221 149.021C36.5443 148.209 36.9591 147.45 37.3342 146.691C38.0297 145.237 38.517 143.692 38.7817 142.102C39.0906 140.632 39.3818 139.264 39.7128 138.037C40.0438 136.81 40.3924 135.707 40.7455 134.758C41.0985 133.809 41.4825 133.019 41.6281 132.309C41.7737 131.598 41.8708 131.06 41.9414 130.689C41.9679 130.522 41.99 130.38 42.012 130.27C42.0286 130.222 42.039 130.171 42.0429 130.12Z" fill="#E0E0E0"/>
<path d="M28.5742 184.621C31.5795 182.812 32.4136 177.362 31.1382 174.096C29.8628 170.83 27.6431 167.843 27.2812 164.352C27.0032 161.669 27.8681 158.911 27.2282 156.289C26.3456 152.759 22.8902 150.027 22.9123 146.386C22.9123 144.343 24.0729 142.415 23.967 140.376C23.839 137.874 21.9061 135.897 20.7057 133.699C18.8655 130.336 18.7243 126.333 18.08 122.565C17.4357 118.796 15.9706 114.736 12.6034 112.896C12.1268 116.113 11.2795 118.319 11.584 122.671C11.6899 124.233 13.5213 127.216 13.7905 130.641C13.9494 132.684 14.0641 134.736 14.2009 136.784C14.3377 138.831 14.4701 140.808 15.1939 142.662C15.7499 144.087 16.6369 145.38 17.0517 146.854C17.8329 149.626 16.8443 152.64 17.4931 155.451C18.0314 157.829 19.6996 159.864 20.0438 162.287C20.5381 165.68 18.358 169.219 19.501 172.437C20.0703 174.038 21.3986 175.323 21.7825 176.978C22.0826 178.266 21.7825 179.625 22.0429 180.923C22.4842 183.006 26.4559 184.599 28.5874 184.453" fill="#E0E0E0"/>
<path d="M13.4556 116.082C13.4497 116.142 13.4497 116.203 13.4556 116.263C13.4556 116.4 13.4953 116.572 13.5262 116.793C13.5968 117.256 13.6806 117.936 13.8395 118.814C13.9984 119.692 14.475 120.694 14.8501 121.903C15.2252 123.112 15.6312 124.484 15.9798 126.029C16.3285 127.574 16.6286 129.286 16.9419 131.131C17.2552 132.975 17.595 134.979 18.5218 136.894C18.9631 137.856 19.4308 138.818 19.7927 139.842C20.1502 140.897 20.3741 141.992 20.4591 143.103C20.6381 145.454 20.9431 147.793 21.3726 150.111C22.3214 154.868 23.2305 159.378 24.0513 163.522C24.8721 167.666 25.715 171.347 26.3726 174.436C27.0301 177.525 27.5773 180.036 27.9524 181.792L28.3937 183.791C28.4467 184.003 28.4864 184.175 28.5173 184.308C28.5287 184.367 28.5464 184.425 28.5703 184.48C28.5751 184.42 28.5751 184.359 28.5703 184.299C28.5438 184.166 28.5129 183.994 28.4732 183.778C28.3805 183.297 28.2525 182.626 28.0848 181.77C27.7318 180.005 27.2022 177.494 26.5976 174.392C25.993 171.289 25.1943 167.573 24.3514 163.46C23.5085 159.348 22.6391 154.811 21.7036 150.058C21.2716 147.743 20.9623 145.407 20.7768 143.059C20.6916 141.927 20.4632 140.81 20.0972 139.736C19.7265 138.686 19.2411 137.719 18.8086 136.766C17.8907 134.882 17.5597 132.909 17.2243 131.073C16.8889 129.237 16.5888 127.516 16.2226 125.967C15.8993 124.573 15.5061 123.196 15.0443 121.841C14.6559 120.636 14.1617 119.635 13.994 118.787C13.8263 117.94 13.7159 117.234 13.6233 116.775C13.5836 116.559 13.5483 116.387 13.5262 116.254C13.5075 116.195 13.4839 116.137 13.4556 116.082Z" fill="#EBEBEB"/>
<path d="M82.4095 1.54594C84.9867 -1.45935 91.6769 0.429437 96.2752 2.86985C96.2752 2.86985 99.435 4.36146 100.609 5.13374H100.649L111.381 3.80983C112.254 3.6977 113.139 3.85151 113.923 4.25113L114.806 4.69244C114.905 4.74372 114.988 4.82216 115.045 4.91866C115.101 5.01515 115.129 5.12574 115.126 5.23758C115.122 5.34942 115.087 5.45791 115.024 5.55045C114.961 5.643 114.873 5.7158 114.77 5.7604L106.867 9.13638V9.23346L114.669 14.3614L114.788 14.4364C116.259 15.3799 118.032 15.733 119.753 15.425L123.932 14.6747C124.143 14.6345 124.361 14.6528 124.563 14.7277C124.732 14.7965 124.88 14.9077 124.994 15.0507C125.107 15.1937 125.181 15.3636 125.21 15.5438C125.238 15.7241 125.22 15.9086 125.156 16.0795C125.092 16.2504 124.985 16.402 124.845 16.5194L119.991 20.5617C119.62 20.873 119.169 21.0722 118.689 21.1363C118.209 21.2004 117.721 21.1266 117.281 20.9236L115.013 19.8821L103.539 14.4232L104.863 20.9501C104.872 21.013 104.867 21.0771 104.849 21.138C104.831 21.1989 104.8 21.2551 104.758 21.3029C104.716 21.3507 104.664 21.3888 104.606 21.4148C104.548 21.4407 104.485 21.4538 104.422 21.4532H103.883C103.522 21.4378 103.17 21.331 102.862 21.1426C102.553 20.9543 102.297 20.6906 102.118 20.3764L97.4977 11.5503L83.9584 5.11168C82.1535 4.28203 81.5092 2.73305 82.4095 1.54594Z" fill="#E0E0E0"/>
<path d="M7.25098 30.4426L41.28 29.688C41.28 29.688 38.1423 24.2643 29.4045 25.2749C21.055 26.2237 20.5519 22.7771 16.2845 22.4506C12.0171 22.124 8.54841 25.447 7.25098 30.4426Z" fill="#F5F5F5"/>
<path d="M166.377 48.8495H198.438C198.438 48.8495 195.605 43.6862 187.352 44.4364C179.466 45.1514 179.069 41.8945 175.057 41.4974C171.046 41.1002 167.71 44.1717 166.377 48.8495Z" fill="#F5F5F5"/>
<path d="M26.6289 13.5539H51.086C51.086 13.5539 48.9236 9.6175 42.6262 10.1912C36.6156 10.7384 36.3111 8.25387 33.2529 7.94495C30.1946 7.63604 27.6483 9.98378 26.6289 13.5539Z" fill="#F5F5F5"/>
<path d="M166.408 65.0275H182.405C182.405 65.0275 180.993 62.4503 176.876 62.821C172.94 63.1784 172.741 61.5544 170.742 61.3559C168.743 61.1573 167.075 62.693 166.408 65.0275Z" fill="#F5F5F5"/>
<path d="M158.406 20.7382H174.408C174.408 20.7382 172.991 18.161 168.874 18.5317C164.938 18.8891 164.739 17.2651 162.74 17.0666C160.741 16.868 159.059 18.4037 158.406 20.7382Z" fill="#FAFAFA"/>
<path d="M198.967 184.647C198.967 184.709 154.426 184.762 99.4877 184.762C44.5497 184.762 0 184.709 0 184.647C0 184.586 44.532 184.533 99.4877 184.533C154.443 184.533 198.967 184.586 198.967 184.647Z" fill="#263238"/>
<path d="M168.481 106.828C168.449 106.519 168.304 106.234 168.073 106.026C167.842 105.819 167.542 105.705 167.232 105.707H157.81C157.626 105.707 157.445 105.749 157.279 105.827C157.113 105.906 156.966 106.021 156.85 106.163C156.734 106.305 156.65 106.471 156.606 106.65C156.561 106.828 156.556 107.014 156.592 107.194C156.648 107.482 156.804 107.741 157.033 107.925C157.261 108.108 157.548 108.204 157.841 108.196H167.237C167.41 108.196 167.582 108.159 167.741 108.088C167.9 108.018 168.043 107.915 168.16 107.786C168.277 107.657 168.366 107.506 168.421 107.341C168.477 107.176 168.497 107.001 168.481 106.828Z" fill="#263238"/>
<path d="M189.033 181.558C188.947 182.147 189.037 182.747 189.292 183.284C189.547 183.821 189.955 184.271 190.466 184.575C190.976 184.88 191.566 185.026 192.159 184.996C192.753 184.966 193.325 184.76 193.801 184.405C194.278 184.05 194.639 183.561 194.838 183.001C195.037 182.441 195.066 181.834 194.92 181.258C194.774 180.682 194.461 180.161 194.019 179.763C193.578 179.365 193.028 179.107 192.44 179.021C191.651 178.906 190.85 179.109 190.211 179.585C189.572 180.06 189.148 180.77 189.033 181.558Z" fill="#263238"/>
<path d="M191.38 182.013L189.549 178.226L190.511 177.613L192.285 181.567L191.38 182.013Z" fill="#455A64"/>
<path d="M174.408 135.398L163.027 105.703L160.864 106.788L171.892 136.214L174.408 135.398Z" fill="#263238"/>
<path d="M200.687 174.622L183.873 181.303C183.572 181.422 183.237 181.418 182.941 181.29C182.644 181.162 182.41 180.921 182.291 180.621L165.567 138.531C164.935 136.941 164.961 135.164 165.638 133.593C166.316 132.022 167.59 130.784 169.18 130.152L176.267 127.337C177.857 126.705 179.633 126.73 181.205 127.408C182.776 128.086 184.014 129.36 184.645 130.95L201.37 173.04C201.489 173.34 201.484 173.676 201.356 173.972C201.228 174.269 200.988 174.503 200.687 174.622Z" fill="#FF725E"/>
<path d="M182.272 180.813C182.272 180.813 182.245 180.724 182.184 180.557L181.906 179.811L180.811 176.947L176.738 166.439C175.004 162.004 172.947 156.731 170.661 150.866L167.065 141.673C166.756 140.879 166.438 140.076 166.125 139.264C165.792 138.47 165.671 137.603 165.772 136.748C165.88 135.877 166.222 135.051 166.76 134.358C167.299 133.664 168.014 133.129 168.832 132.808C169.649 132.488 170.538 132.393 171.404 132.535C172.271 132.677 173.083 133.05 173.755 133.615C174.407 134.175 174.907 134.892 175.207 135.698L176.151 138.112C177.404 141.298 178.614 144.37 179.761 147.3L185.891 162.851C187.656 167.264 189.055 170.843 190.043 173.328L191.182 176.174C191.314 176.488 191.411 176.735 191.486 176.911C191.561 177.088 191.597 177.159 191.597 177.159C191.597 177.159 191.57 177.07 191.508 176.898L191.23 176.152C190.979 175.49 190.608 174.528 190.136 173.293L186.063 162.785L179.986 147.212C178.843 144.281 177.638 141.205 176.389 138.019C176.08 137.22 175.763 136.417 175.445 135.605C175.136 134.751 174.612 133.991 173.922 133.399C173.214 132.803 172.359 132.41 171.446 132.26C170.533 132.11 169.596 132.209 168.735 132.547C167.874 132.885 167.12 133.45 166.552 134.18C165.985 134.911 165.625 135.782 165.511 136.7C165.404 137.6 165.532 138.512 165.882 139.348L166.826 141.779C168.08 144.961 169.289 148.037 170.436 150.963C172.74 156.806 174.818 162.079 176.561 166.492L180.714 176.973L181.857 179.815C181.985 180.133 182.087 180.376 182.162 180.552C182.193 180.641 182.23 180.728 182.272 180.813Z" fill="#263238"/>
<path d="M181.186 150.901C181.221 151.016 183.419 150.146 186.098 148.968C188.776 147.79 190.917 146.735 190.881 146.625C190.846 146.514 188.644 147.375 185.97 148.558C183.295 149.74 181.151 150.786 181.186 150.901Z" fill="#263238"/>
<path d="M166.315 105.703L164.351 101.819C164.131 101.385 163.763 101.044 163.314 100.857L160.225 99.5686L151.902 88.28L151.116 96.9252L156.412 102.393C156.412 102.393 159.735 109.392 162.449 109.035C162.382 108.404 162.196 107.792 161.902 107.23C161.019 105.703 161.959 105.703 162.083 105.712H164.355L166.315 105.703Z" fill="#FFBE9D"/>
<path d="M152.727 99.7317C152.978 100.107 155.035 102.896 155.035 102.896L160.864 98.6549L158.746 96.5852L152.727 99.7317Z" fill="#FF725E"/>
<path d="M161.919 107.229C161.919 107.229 163.437 108.112 163.627 108.827V109.268L161.809 109.004L161.919 107.229Z" fill="#FFBE9D"/>
<path d="M163.954 108.059C163.685 107.849 163.475 107.572 163.345 107.256C163.286 107.097 163.289 106.921 163.353 106.764C163.416 106.606 163.536 106.478 163.689 106.404C164.002 106.298 164.324 106.523 164.572 106.748C164.882 107.026 165.176 107.321 165.454 107.631C165.586 107.744 165.689 107.886 165.755 108.047C165.821 108.207 165.848 108.381 165.834 108.553C165.793 108.687 165.712 108.806 165.601 108.892C165.49 108.978 165.356 109.028 165.216 109.034C165.075 109.037 164.935 109.012 164.804 108.958C164.674 108.905 164.556 108.826 164.457 108.725C164.26 108.527 164.103 108.294 163.993 108.037" fill="#FFBE9D"/>
<path d="M165.493 107.927C165.224 107.716 165.014 107.44 164.884 107.124C164.825 106.964 164.828 106.789 164.892 106.631C164.955 106.474 165.075 106.346 165.228 106.272C165.541 106.166 165.863 106.391 166.111 106.616C166.421 106.894 166.715 107.188 166.993 107.499C167.125 107.612 167.228 107.754 167.294 107.914C167.36 108.075 167.387 108.248 167.373 108.421C167.332 108.555 167.251 108.673 167.14 108.759C167.029 108.846 166.895 108.895 166.755 108.902C166.614 108.905 166.474 108.879 166.344 108.826C166.213 108.773 166.095 108.693 165.996 108.593C165.799 108.395 165.642 108.161 165.532 107.905" fill="#FFBE9D"/>
<path d="M160.864 101.298C160.864 101.245 161.257 101.263 161.712 101.656C161.923 101.914 162.1 102.199 162.237 102.503C162.442 102.872 162.546 103.29 162.537 103.712C162.474 104.128 162.31 104.522 162.06 104.86C161.891 105.132 161.769 105.43 161.698 105.742C161.634 106.032 161.613 106.329 161.637 106.625C161.56 106.487 161.512 106.335 161.495 106.178C161.479 106.021 161.494 105.862 161.539 105.711C161.593 105.377 161.708 105.055 161.879 104.763C162.104 104.447 162.254 104.085 162.321 103.703C162.326 103.32 162.236 102.941 162.06 102.6C161.944 102.307 161.796 102.027 161.619 101.766C161.467 101.616 161.295 101.488 161.107 101.387C161.028 101.353 160.947 101.323 160.864 101.298Z" fill="#EB996E"/>
<path d="M98.0631 61.4663L91.876 81.2456L110.075 100.253L126.752 95.9189L98.0631 61.4663Z" fill="#F5F5F5"/>
<path d="M98.0576 61.4617L98.1988 61.625L98.6181 62.1192L100.242 64.0521L106.292 71.2675L126.844 95.8481L126.959 95.9849L126.787 96.029L117.387 98.4739L110.11 100.363H110.043L109.999 100.314L91.8087 81.3204L91.7734 81.2807V81.2321C93.6887 75.173 95.2597 70.226 96.3498 66.7838C96.8882 65.0804 97.3118 63.752 97.6031 62.843L97.9296 61.8191C98.0047 61.5941 98.04 61.4793 98.04 61.4793C97.8281 62.1722 95.6525 69.2463 91.9455 81.2851L91.9235 81.1968L110.136 100.173L110.026 100.142L117.303 98.2488L126.703 95.804L126.645 95.9893L106.279 71.4175L100.251 64.136L98.6269 62.1633L98.1856 61.6514L98.0576 61.4617Z" fill="#263238"/>
<path d="M98.627 74.5112C98.858 74.152 99.1593 73.8431 99.5126 73.6031C99.8659 73.3632 100.264 73.197 100.683 73.1146C101.102 73.0321 101.534 73.0352 101.951 73.1235C102.369 73.2118 102.765 73.3836 103.115 73.6285C104.254 74.5112 104.779 76.1749 106.147 76.6162C107.135 76.9339 108.225 76.4705 109.236 76.6515C110.432 76.8677 111.323 77.9754 111.667 79.1228C112.012 80.2702 111.919 81.5367 111.822 82.7503L105.904 82.8297L98.627 74.5112Z" fill="#E0E0E0"/>
<path d="M87.6826 63.2712L126.032 102.79L110.405 101.206L88.5476 78.13L87.6826 63.2712Z" fill="#F5F5F5"/>
<path d="M87.6865 63.2712C87.7218 63.8493 88.0396 68.9332 88.6221 78.1255V78.077C94.2134 83.964 101.861 92.009 110.506 101.131L110.436 101.095L122.426 102.305L126.062 102.675L125.97 102.869C104.646 80.8043 88.5515 64.1494 87.7086 63.2712L126.133 102.711L126.354 102.936L126.04 102.905L122.4 102.534L110.414 101.316H110.374L110.343 101.29C101.711 92.1502 94.0854 84.0787 88.5118 78.1873V78.1608C87.9822 68.9376 87.713 63.8493 87.6865 63.2712Z" fill="#263238"/>
<path d="M102.691 78.9773C101.508 80.3409 101.68 82.5077 102.691 84.0126C103.702 85.5174 105.37 86.4265 107.055 87.0752C108.419 87.6004 110.1 87.9314 111.23 87.0046" fill="#E0E0E0"/>
<path d="M100.697 76.828C100.767 77.1589 100.353 77.4061 100.017 77.3752C99.6819 77.3443 99.3729 77.1545 99.0331 77.1369C98.1108 77.0839 97.6077 78.1783 96.8575 78.7123C96.405 79.0079 95.8552 79.1156 95.3247 79.0127C94.7941 78.9097 94.3245 78.6041 94.0155 78.1607C93.5124 77.3796 93.5257 76.2234 92.7313 75.7423C92.2635 75.5137 91.7279 75.465 91.2265 75.6055C90.73 75.7437 90.2138 75.7974 89.6996 75.7644C89.4432 75.7407 89.2028 75.6296 89.0188 75.4495C88.8347 75.2695 88.7183 75.0317 88.689 74.7759L88.4109 74.3346L87.7578 63.4255L100.697 76.828Z" fill="#E0E0E0"/>
<path d="M119.386 101.991C119.583 102.041 119.788 102.05 119.988 102.018C120.189 101.986 120.381 101.913 120.552 101.804C120.723 101.694 120.87 101.551 120.984 101.383C121.097 101.215 121.176 101.026 121.213 100.826C121.262 100.388 121.142 99.9482 120.877 99.5961C120.612 99.2441 120.222 99.0068 119.788 98.9329C119.007 98.8314 118.199 99.286 117.449 99.0521C116.593 98.7829 116.24 97.79 116.024 96.9206C115.807 96.0512 115.503 95.0583 114.673 94.7141C113.301 94.158 111.853 95.9188 110.419 95.5305C109.355 95.2436 108.945 93.9639 108.111 93.2445C107.773 92.9586 107.368 92.7638 106.934 92.6789C106.5 92.5939 106.051 92.6215 105.631 92.7591C105.249 92.8524 104.903 93.0548 104.634 93.3416C104.365 93.6284 104.186 93.9872 104.117 94.3743L110.45 101.051L119.386 101.991Z" fill="#E0E0E0"/>
<path d="M108.901 168.778L107.326 177.86C107.326 177.86 97.5639 179.308 97.1094 180.95L114.612 184.639L117.648 170.588L108.901 168.778Z" fill="#FF725E"/>
<g opacity="0.6">
<path opacity="0.6" d="M112.899 178.244C113.056 178.331 113.176 178.472 113.235 178.642C113.295 178.811 113.29 178.997 113.221 179.162C113.14 179.323 113 179.446 112.831 179.507C112.662 179.568 112.476 179.561 112.312 179.489C112.145 179.397 112.018 179.246 111.956 179.066C111.894 178.886 111.901 178.689 111.976 178.514C112.078 178.355 112.237 178.242 112.421 178.198C112.605 178.154 112.798 178.184 112.96 178.28" fill="white"/>
</g>
<path opacity="0.6" d="M114.61 184.647L114.928 183.262L97.9998 180.234C97.9998 180.234 97.1525 180.411 97.1172 180.976L114.61 184.647Z" fill="white"/>
<path d="M107.061 177.71C107.061 177.799 107.467 177.927 107.828 178.288C108.19 178.65 108.34 179.061 108.424 179.043C108.508 179.025 108.486 178.505 108.04 178.072C107.595 177.64 107.061 177.631 107.061 177.71Z" fill="#263238"/>
<path d="M105.066 178.085C105.031 178.165 105.371 178.385 105.582 178.809C105.794 179.233 105.799 179.63 105.887 179.648C105.975 179.665 106.13 179.206 105.852 178.668C105.574 178.129 105.084 178.001 105.066 178.085Z" fill="#263238"/>
<path d="M103.561 180.063C103.636 180.098 103.844 179.696 103.725 179.18C103.605 178.664 103.244 178.394 103.191 178.461C103.138 178.527 103.332 178.827 103.429 179.251C103.526 179.674 103.477 180.036 103.561 180.063Z" fill="#263238"/>
<path d="M107.652 175.68C107.652 175.769 108.093 175.733 108.565 175.866C109.038 175.998 109.382 176.232 109.448 176.17C109.514 176.108 109.21 175.729 108.649 175.574C108.089 175.42 107.621 175.605 107.652 175.68Z" fill="#263238"/>
<path opacity="0.3" d="M108.592 170.579L108.31 172.194L116.928 173.928L117.246 172.485L108.592 170.579Z" fill="black"/>
<path d="M108.001 173.853C108.274 173.991 108.579 174.054 108.884 174.034C109.213 174.047 109.542 174.018 109.863 173.946C110.052 173.904 110.237 173.851 110.419 173.787C110.53 173.754 110.634 173.703 110.728 173.637C110.796 173.588 110.846 173.519 110.87 173.439C110.895 173.36 110.893 173.274 110.865 173.196C110.834 173.128 110.787 173.067 110.729 173.02C110.671 172.973 110.603 172.939 110.53 172.922C110.42 172.898 110.307 172.891 110.194 172.9C109.663 172.915 109.145 173.067 108.689 173.341C108.204 173.633 107.997 173.92 108.023 173.946C108.05 173.973 108.31 173.756 108.786 173.531C109.23 173.326 109.711 173.215 110.199 173.205C110.393 173.205 110.552 173.227 110.583 173.319C110.614 173.412 110.583 173.368 110.543 173.416C110.472 173.462 110.397 173.499 110.318 173.527C110.147 173.59 109.973 173.644 109.797 173.69C109.497 173.769 109.189 173.819 108.879 173.84C108.586 173.825 108.293 173.829 108.001 173.853Z" fill="#263238"/>
<path d="M108.089 173.994C108.116 174.017 108.35 173.747 108.5 173.2C108.581 172.879 108.607 172.546 108.579 172.216C108.565 172.018 108.528 171.823 108.469 171.633C108.446 171.508 108.391 171.391 108.31 171.293C108.229 171.195 108.124 171.119 108.005 171.073C107.927 171.061 107.846 171.07 107.773 171.099C107.699 171.129 107.634 171.178 107.586 171.241C107.52 171.335 107.466 171.437 107.427 171.545C107.356 171.733 107.314 171.931 107.304 172.132C107.283 172.471 107.345 172.811 107.485 173.121C107.732 173.646 108.067 173.822 108.08 173.796C108.094 173.769 107.855 173.531 107.688 173.037C107.588 172.754 107.552 172.453 107.582 172.154C107.6 171.982 107.642 171.813 107.705 171.651C107.771 171.475 107.873 171.338 107.939 171.373C108.005 171.408 108.147 171.558 108.186 171.722C108.243 171.887 108.284 172.057 108.31 172.229C108.353 172.532 108.353 172.84 108.31 173.143C108.204 173.677 108.045 173.994 108.089 173.994Z" fill="#263238"/>
<path d="M166.412 169.33L162.63 164.387L162.431 164.131L155.971 168.928L161.942 175.486L161.725 182.128C158.398 182.984 157.899 184.648 157.899 184.648H164.81L171.09 172.556L166.412 169.33Z" fill="#FF725E"/>
<path opacity="0.6" d="M171.103 172.547L164.823 184.639L157.912 184.648L158.689 183.606L164.311 183.293L170.105 171.863L171.103 172.547Z" fill="white"/>
<path d="M161.777 179.083C161.83 179.153 162.219 178.928 162.762 178.942C163.304 178.955 163.688 179.18 163.741 179.109C163.794 179.039 163.419 178.668 162.766 178.637C162.113 178.606 161.707 179.03 161.777 179.083Z" fill="#263238"/>
<path d="M161.888 177.437C161.959 177.485 162.264 177.079 162.815 176.969C163.367 176.859 163.808 177.115 163.852 177.044C163.896 176.973 163.799 176.894 163.605 176.788C163.343 176.659 163.045 176.62 162.759 176.677C162.472 176.735 162.213 176.885 162.021 177.106C161.884 177.282 161.853 177.419 161.888 177.437Z" fill="#263238"/>
<path d="M161.844 175.318C161.919 175.358 162.153 174.957 162.634 174.789C163.115 174.621 163.547 174.789 163.583 174.701C163.618 174.612 163.517 174.573 163.322 174.502C163.067 174.41 162.788 174.41 162.532 174.502C162.279 174.594 162.063 174.768 161.919 174.996C161.813 175.177 161.804 175.318 161.844 175.318Z" fill="#263238"/>
<path d="M159.99 173.686C160.074 173.712 160.268 173.319 160.696 173.041C161.124 172.763 161.552 172.724 161.579 172.635C161.605 172.547 161.062 172.437 160.546 172.79C160.03 173.143 159.906 173.677 159.99 173.686Z" fill="#263238"/>
<path d="M159.09 172.265C159.125 172.287 159.35 172.009 159.69 171.541L160.277 170.711C160.409 170.54 160.516 170.352 160.595 170.151C160.618 170.078 160.627 170.002 160.62 169.926C160.613 169.85 160.591 169.776 160.555 169.709C160.513 169.637 160.451 169.579 160.377 169.541C160.302 169.502 160.219 169.486 160.136 169.493C159.893 169.54 159.669 169.656 159.491 169.829C159.322 169.965 159.173 170.125 159.05 170.305C158.854 170.607 158.73 170.95 158.688 171.307C158.616 171.628 158.671 171.965 158.843 172.247C158.845 171.943 158.864 171.64 158.9 171.338C158.966 171.021 159.095 170.721 159.28 170.455C159.388 170.303 159.516 170.165 159.659 170.045C159.795 169.921 159.958 169.832 160.136 169.784C160.162 169.781 160.188 169.785 160.212 169.797C160.236 169.809 160.255 169.828 160.268 169.851C160.291 169.913 160.291 169.982 160.268 170.045C160.197 170.215 160.106 170.376 159.999 170.526C159.822 170.821 159.646 171.108 159.469 171.408C159.298 171.672 159.17 171.961 159.09 172.265Z" fill="#263238"/>
<path d="M158.843 172.472C158.874 172.472 158.843 172.106 158.472 171.691C158.218 171.415 157.88 171.23 157.511 171.163C157.141 171.096 156.76 171.151 156.425 171.32C156.39 171.351 156.361 171.389 156.342 171.432C156.323 171.474 156.314 171.521 156.314 171.567C156.319 171.648 156.348 171.725 156.398 171.788C156.47 171.871 156.553 171.944 156.645 172.004C156.799 172.113 156.963 172.206 157.135 172.282C157.423 172.414 157.73 172.501 158.044 172.538C158.331 172.6 158.63 172.572 158.901 172.459C158.901 172.41 158.574 172.432 158.08 172.326C157.794 172.264 157.519 172.164 157.259 172.031C157.105 171.953 156.957 171.863 156.818 171.761C156.75 171.719 156.689 171.667 156.637 171.607C156.606 171.545 156.637 171.563 156.637 171.545C156.699 171.507 156.768 171.482 156.84 171.47C156.924 171.452 157.01 171.439 157.096 171.43C157.26 171.42 157.425 171.432 157.585 171.466C157.862 171.528 158.118 171.659 158.331 171.845C158.693 172.172 158.795 172.49 158.843 172.472Z" fill="#263238"/>
<path opacity="0.6" d="M165.587 172.339C165.587 172.502 165.635 172.66 165.725 172.795C165.815 172.93 165.944 173.036 166.094 173.098C166.244 173.16 166.409 173.176 166.568 173.144C166.727 173.113 166.873 173.035 166.988 172.92C167.103 172.805 167.181 172.659 167.213 172.5C167.244 172.34 167.228 172.175 167.166 172.025C167.104 171.875 166.999 171.747 166.864 171.657C166.729 171.567 166.57 171.519 166.408 171.519C166.19 171.519 165.981 171.605 165.827 171.759C165.673 171.913 165.587 172.122 165.587 172.339Z" fill="white"/>
<path opacity="0.3" d="M156.583 169.586L157.911 171.046L163.494 165.517L162.717 164.506L156.583 169.586Z" fill="black"/>
<path d="M139.398 54.4936C143.092 53.2103 147.078 53.0293 150.872 53.9728C152.554 54.3921 154.262 55.0893 155.338 56.4485C156.614 58.0549 156.773 60.2438 156.971 62.287C157.37 66.4431 158.135 70.5558 159.257 74.5773C160.193 77.9224 161.375 81.1969 161.883 84.6523C162.39 88.1077 162.157 91.7661 160.405 94.767C157.704 99.3919 151.962 101.435 146.609 101.528C143.794 101.572 140.908 101.162 138.41 99.8553C135.912 98.549 133.834 96.2675 133.225 93.5181" fill="#FF725E"/>
<g opacity="0.5">
<path opacity="0.5" d="M139.398 54.4936C143.092 53.2103 147.078 53.0293 150.872 53.9728C152.554 54.3921 154.262 55.0893 155.338 56.4485C156.614 58.0549 156.773 60.2438 156.971 62.287C157.37 66.4431 158.135 70.5558 159.257 74.5773C160.193 77.9224 161.375 81.1969 161.883 84.6523C162.39 88.1077 162.157 91.7661 160.405 94.767C157.704 99.3919 151.962 101.435 146.609 101.528C143.794 101.572 140.908 101.162 138.41 99.8553C135.912 98.549 133.834 96.2675 133.225 93.5181" fill="black"/>
</g>
<path d="M146.76 58.7302C147.34 59.2366 147.854 59.8133 148.291 60.4469C148.745 61.1501 149.144 61.8879 149.483 62.6534C149.898 63.6041 150.374 64.5269 150.908 65.416C151.457 66.3168 152.214 67.0734 153.115 67.6225C153.868 68.0726 154.754 68.2458 155.621 68.1124C156.202 68.0292 156.746 67.7794 157.188 67.393C157.305 67.2872 157.409 67.1671 157.497 67.0356C157.558 66.9473 157.585 66.8988 157.576 66.8944C157.567 66.8899 157.426 67.0621 157.135 67.3048C156.691 67.6412 156.165 67.8516 155.612 67.9138C154.793 68.0111 153.966 67.8275 153.265 67.393C152.407 66.852 151.686 66.1193 151.16 65.2527C150.632 64.3732 150.157 63.4641 149.734 62.5299C149.378 61.7583 148.954 61.0199 148.468 60.3233C148.137 59.8514 147.744 59.4268 147.298 59.0612C147.139 58.9208 146.957 58.8088 146.76 58.7302Z" fill="#E0E0E0"/>
<path d="M154.513 100.067C154.524 99.9513 154.524 99.8345 154.513 99.7186C154.513 99.4626 154.513 99.136 154.513 98.73C154.513 97.8739 154.451 96.6294 154.385 95.0981C154.248 92.009 154.01 87.7901 153.639 83.1211C153.269 78.4521 152.849 74.2244 152.505 71.175C152.329 69.6481 152.179 68.4124 152.064 67.5651C152.011 67.1635 151.962 66.837 151.927 66.5854C151.916 66.4702 151.894 66.3564 151.861 66.2456C151.847 66.3599 151.847 66.4755 151.861 66.5898C151.883 66.8458 151.914 67.1723 151.945 67.5739C152.033 68.4565 152.152 69.6922 152.293 71.1926C152.589 74.2509 152.982 78.4742 153.348 83.1432C153.714 87.8122 153.988 92.0443 154.173 95.1069C154.266 96.6118 154.341 97.843 154.394 98.7344L154.464 99.723C154.471 99.8389 154.487 99.9541 154.513 100.067Z" fill="#E0E0E0"/>
<path d="M153.415 81.3205C153.415 81.3955 155.105 81.3778 157.171 81.1175C159.236 80.8571 160.878 80.4687 160.864 80.3981C160.851 80.3275 159.192 80.5835 157.135 80.8394C155.079 81.0954 153.411 81.2234 153.415 81.3205Z" fill="#E0E0E0"/>
<path d="M154.779 81.2632C154.645 81.5109 154.566 81.7851 154.549 82.0664C154.498 82.3655 154.467 82.6678 154.457 82.971C154.442 83.1688 154.475 83.3672 154.554 83.5491C154.603 83.6598 154.683 83.7542 154.783 83.8214C154.884 83.8886 155.002 83.9258 155.123 83.9287C155.192 83.9316 155.261 83.9184 155.323 83.89C155.386 83.8617 155.442 83.819 155.485 83.7654C155.561 83.6695 155.606 83.5523 155.613 83.43C155.619 83.2386 155.592 83.0475 155.533 82.8651C155.46 82.5627 155.359 82.2673 155.233 81.9825C155.017 81.5103 154.814 81.2588 154.792 81.2764C154.854 81.5449 154.943 81.8065 155.057 82.0575C155.15 82.3357 155.228 82.6185 155.291 82.9048C155.332 83.0618 155.349 83.2238 155.344 83.3859C155.344 83.5359 155.255 83.6286 155.132 83.6286C154.836 83.6286 154.717 83.2711 154.73 82.9534C154.744 82.6356 154.73 82.3223 154.757 82.0708C154.798 81.8036 154.805 81.5322 154.779 81.2632Z" fill="#E0E0E0"/>
<path d="M135.759 56.0909L153.489 54.0206C155.81 53.7495 157.473 51.6478 157.202 49.3262L156.817 46.0344C156.546 43.7128 154.444 42.0506 152.123 42.3217L134.392 44.392C132.071 44.663 130.409 46.7648 130.68 49.0863L131.064 52.3782C131.335 54.6997 133.437 56.362 135.759 56.0909Z" fill="#455A64"/>
<path d="M151.827 42.6049C151.827 42.6049 151.774 42.5696 151.659 42.5343C151.49 42.4859 151.315 42.4592 151.139 42.4548C150.479 42.4575 149.84 42.6796 149.32 43.0859C148.526 43.6453 147.895 44.4072 147.493 45.2924C147.045 46.3871 146.872 47.5752 146.99 48.7523C147.054 49.9398 147.471 51.0813 148.186 52.0311C148.774 52.8068 149.581 53.388 150.503 53.6993C151.116 53.9106 151.769 53.983 152.414 53.9111C152.589 53.8918 152.762 53.8563 152.93 53.8052C153.045 53.7699 153.102 53.7478 153.098 53.739C153.094 53.7302 152.851 53.7743 152.405 53.8008C151.78 53.828 151.155 53.7289 150.569 53.5095C149.7 53.1883 148.943 52.6191 148.394 51.8723C147.725 50.9552 147.337 49.8636 147.277 48.7302C147.156 47.6003 147.307 46.4577 147.718 45.3983C148.095 44.5505 148.683 43.8135 149.426 43.258C149.907 42.8607 150.499 42.6231 151.121 42.5784C151.58 42.5475 151.823 42.6314 151.827 42.6049Z" fill="#263238"/>
<path d="M141.694 43.5009L144.43 43.2317C143.699 43.4554 143.072 43.9347 142.665 44.5821C142.268 45.2258 142.013 45.9462 141.915 46.6959C141.425 49.8424 143.098 53.2228 145.785 54.9263L143.579 55.2175C143.579 55.2175 137.268 49.5821 141.677 43.5009" fill="#263238"/>
<path d="M138.596 49.2906C139.301 49.4857 140.042 49.5131 140.759 49.3705C141.477 49.2279 142.151 48.9193 142.728 48.4693C143.305 48.0194 143.769 47.4406 144.082 46.7793C144.395 46.1181 144.549 45.3927 144.531 44.6613C144.5 43.3065 143.883 41.9208 144.306 40.6278C144.597 39.7452 145.339 39.0479 145.59 38.152C145.961 36.8061 145.149 35.4513 144.377 34.295C143.917 33.5268 143.344 32.8321 142.678 32.2342C142.342 31.9363 141.945 31.7159 141.515 31.5885C141.085 31.4611 140.632 31.43 140.189 31.4972" fill="#263238"/>
<path d="M126.062 31.6165C126.137 32.6403 125.462 33.5582 124.778 34.3261C124.094 35.0939 123.339 35.9015 123.189 36.9165C122.929 38.7215 124.694 40.394 124.332 42.1813C124.134 43.1389 123.353 43.9068 123.211 44.8732C123.07 45.8397 123.578 46.7267 124.2 47.4372C124.822 48.1477 125.577 48.7611 126.129 49.5114C126.652 50.3595 127.096 51.2549 127.452 52.1857C127.809 53.1233 128.457 53.9216 129.301 54.4628C130.625 55.1777 132.461 54.8423 133.467 55.95C134.474 57.0577 135.639 57.1856 136.839 57.9932" fill="#263238"/>
<path d="M141.849 33.1831C141.875 32.2564 141.015 31.5371 140.15 31.1973C139.285 30.8574 138.318 30.7251 137.546 30.2043C136.862 29.763 136.403 29.0304 135.825 28.4391C135.11 27.7182 134.217 27.1998 133.236 26.9371C132.255 26.6744 131.222 26.6766 130.243 26.9436C129.263 27.2106 128.372 27.7328 127.66 28.4568C126.948 29.1809 126.441 30.0809 126.191 31.0649C125.86 32.3888 126.085 33.9554 127.131 34.838C128.345 35.8574 130.141 35.6324 131.694 35.3146C133.248 34.9969 135.004 34.6836 136.302 35.5971C137.083 36.1443 137.528 37.0401 138.009 37.8698C138.49 38.6994 139.086 39.5423 139.991 39.8512C140.896 40.1601 142.122 39.6262 142.158 38.673" fill="#263238"/>
<path d="M138.164 33.3773C138.551 33.4182 138.908 33.6036 139.165 33.8963C139.422 34.1891 139.559 34.5679 139.549 34.9572L138.622 55.9809C138.583 58.4655 134.955 59.86 132.294 59.7982C129.611 59.7364 129.523 58.4169 129.492 56.056C129.435 52.1107 129.439 50.6279 129.439 50.65C129.439 50.672 126.045 50.0807 125.352 45.6544C125.008 43.4479 125.127 39.8424 125.322 36.8945C125.494 34.2467 127.259 30.9855 129.907 31.2679L138.164 33.3773Z" fill="#FFBE9D"/>
<path d="M126.16 39.4231C126.158 39.5714 126.214 39.7147 126.316 39.8221C126.419 39.9294 126.559 39.9922 126.707 39.9968C126.779 40.0016 126.851 39.9921 126.919 39.9689C126.987 39.9457 127.05 39.9092 127.103 39.8616C127.157 39.814 127.201 39.7561 127.232 39.6915C127.263 39.6268 127.282 39.5566 127.286 39.4849C127.288 39.3373 127.233 39.1946 127.131 39.0874C127.03 38.9802 126.89 38.9169 126.743 38.9112C126.671 38.9058 126.598 38.9148 126.53 38.9378C126.461 38.9607 126.398 38.9971 126.344 39.0447C126.29 39.0924 126.245 39.1504 126.214 39.2154C126.182 39.2804 126.164 39.351 126.16 39.4231Z" fill="#263238"/>
<path d="M126.098 38.7701C126.168 38.8451 126.601 38.5273 127.21 38.5318C127.819 38.5362 128.269 38.8407 128.335 38.7657C128.401 38.6906 128.296 38.5979 128.101 38.4567C127.842 38.278 127.534 38.1812 127.219 38.1787C126.902 38.178 126.593 38.2768 126.336 38.4611C126.129 38.6068 126.063 38.7392 126.098 38.7701Z" fill="#263238"/>
<path d="M132.241 39.5774C132.239 39.7257 132.295 39.869 132.397 39.9764C132.5 40.0837 132.64 40.1465 132.788 40.1511C132.86 40.1571 132.933 40.1486 133.001 40.1262C133.069 40.1038 133.133 40.0678 133.187 40.0205C133.241 39.9732 133.286 39.9154 133.317 39.8507C133.349 39.786 133.367 39.7155 133.371 39.6436C133.373 39.4956 133.318 39.3524 133.217 39.2445C133.115 39.1366 132.976 39.0724 132.828 39.0655C132.756 39.0601 132.683 39.0691 132.615 39.092C132.546 39.1149 132.482 39.1512 132.428 39.1988C132.373 39.2464 132.329 39.3044 132.297 39.3694C132.265 39.4344 132.246 39.5051 132.241 39.5774Z" fill="#263238"/>
<path d="M132.103 38.8978C132.174 38.9729 132.602 38.6551 133.216 38.6595C133.829 38.664 134.27 38.9685 134.336 38.8934C134.403 38.8184 134.301 38.7257 134.103 38.5845C133.844 38.4028 133.536 38.3057 133.22 38.3065C132.903 38.3027 132.593 38.4018 132.337 38.5889C132.139 38.7302 132.068 38.867 132.103 38.8978Z" fill="#263238"/>
<path d="M129.876 43.4257C129.554 43.3228 129.22 43.2605 128.883 43.2404C128.728 43.2404 128.583 43.1962 128.556 43.0903C128.54 42.929 128.576 42.7668 128.658 42.627L129.125 41.4399C129.553 40.439 129.901 39.4061 130.167 38.3507C130.096 38.3242 129.518 39.6746 128.878 41.3604C128.719 41.8017 128.574 42.1768 128.437 42.5564C128.337 42.7427 128.307 42.9589 128.353 43.1654C128.376 43.2203 128.411 43.2695 128.455 43.3092C128.499 43.3489 128.552 43.3782 128.609 43.3948C128.695 43.4191 128.784 43.4324 128.874 43.4345C129.207 43.4714 129.543 43.4684 129.876 43.4257Z" fill="#263238"/>
<path d="M129.439 50.6498C131.521 50.6927 133.574 50.1581 135.371 49.1052C135.371 49.1052 133.905 52.1193 129.492 51.6957L129.439 50.6498Z" fill="#EB996E"/>
<path d="M130.132 44.8953C130.249 44.7501 130.401 44.6368 130.574 44.5658C130.747 44.4949 130.935 44.4685 131.12 44.4893C131.255 44.5028 131.385 44.5428 131.504 44.6072C131.623 44.6716 131.728 44.7591 131.813 44.8644C131.894 44.9666 131.942 45.0913 131.95 45.2215C131.958 45.3518 131.926 45.4814 131.857 45.5926C131.759 45.7014 131.631 45.7784 131.488 45.8138C131.346 45.8492 131.196 45.8413 131.059 45.7912C130.769 45.6891 130.504 45.53 130.277 45.3234C130.208 45.2756 130.15 45.214 130.105 45.1425C130.081 45.1099 130.068 45.0704 130.068 45.0299C130.068 44.9894 130.081 44.95 130.105 44.9174" fill="#EB996E"/>
<path d="M131.671 43.8495C131.574 43.8495 131.57 44.507 131.001 44.9748C130.431 45.4426 129.725 45.372 129.721 45.4646C129.716 45.5573 129.88 45.5926 130.162 45.6014C130.551 45.6094 130.93 45.4779 131.23 45.2307C131.521 44.9966 131.708 44.6573 131.751 44.2863C131.791 44.0127 131.698 43.845 131.671 43.8495Z" fill="#263238"/>
<path d="M131.83 37.8301C131.888 37.9933 132.501 37.9183 133.216 38.0066C133.931 38.0949 134.514 38.289 134.606 38.1434C134.65 38.0684 134.549 37.9139 134.315 37.7506C134.006 37.5507 133.653 37.4267 133.287 37.3888C132.92 37.3447 132.548 37.387 132.201 37.5123C131.936 37.6315 131.804 37.7506 131.83 37.8301Z" fill="#263238"/>
<path d="M126.327 37.0047C126.433 37.1415 126.857 37.0047 127.36 37.0047C127.863 37.0047 128.296 37.0974 128.393 36.9517C128.437 36.8855 128.371 36.7443 128.185 36.6119C127.934 36.4534 127.641 36.3733 127.344 36.382C127.047 36.3906 126.759 36.4876 126.517 36.6605C126.341 36.7929 126.279 36.9385 126.327 37.0047Z" fill="#263238"/>
<path d="M141.253 47.9358C140.641 48.059 140.009 48.0349 139.409 47.8656C138.808 47.6962 138.257 47.3863 137.8 46.9616C137.343 46.5369 136.993 46.0095 136.78 45.4231C136.567 44.8366 136.497 44.2079 136.575 43.5889C136.716 42.5033 137.299 41.3824 136.924 40.3674C136.425 39.0082 134.519 38.6022 134.011 37.2341C133.72 36.4442 133.985 35.5219 133.649 34.7496C133.314 33.9773 132.572 33.6022 131.827 33.333C131.06 33.1351 130.328 32.8179 129.66 32.393C129.033 31.9076 128.645 30.9897 129.046 30.3101C132.353 30.7039 135.601 31.4921 138.72 32.6578C139.439 32.927 140.198 33.2536 140.626 33.8934C141.054 34.5333 141.068 35.4513 141.019 36.2677L140.463 48.1829" fill="#263238"/>
<path d="M143.636 51.6161C143.634 51.2367 143.556 50.8616 143.406 50.5128C143.223 50.1092 142.967 49.7427 142.651 49.4316C142.227 49.0263 141.745 48.6857 141.222 48.4211C140.644 48.1077 139.977 47.8209 139.298 47.4325C138.549 47.0344 137.917 46.4471 137.466 45.7291C137.23 45.3276 137.102 44.8712 137.095 44.4052C137.115 43.932 137.181 43.4619 137.294 43.0018C137.417 42.5492 137.448 42.0767 137.387 41.6117C137.339 41.383 137.241 41.1678 137.099 40.9816C136.958 40.7954 136.778 40.6429 136.57 40.5349C136.129 40.2878 135.688 40.1334 135.224 39.9215C134.75 39.7294 134.35 39.3908 134.081 38.9551C133.858 38.5227 133.743 38.0427 133.746 37.5561C133.746 37.0928 133.746 36.6471 133.746 36.2322C133.756 35.8177 133.697 35.4044 133.569 35.0098C133.441 34.6482 133.207 34.3332 132.899 34.1051C132.301 33.7214 131.634 33.459 130.935 33.3329C130.343 33.2151 129.778 32.9908 129.267 32.6709C128.881 32.4085 128.598 32.02 128.468 31.572C128.378 31.2938 128.378 30.9942 128.468 30.7159C128.502 30.6224 128.553 30.5357 128.618 30.46C128.618 30.46 128.569 30.5526 128.512 30.7336C128.438 31.0021 128.447 31.2869 128.539 31.55C128.677 31.9668 128.952 32.3245 129.32 32.565C129.826 32.863 130.38 33.0706 130.957 33.1784C131.681 33.2992 132.374 33.5617 132.996 33.9507C133.336 34.1993 133.596 34.5433 133.742 34.9392C133.878 35.3549 133.945 35.7903 133.94 36.2278C133.94 36.6691 133.94 37.1104 133.94 37.5517C133.939 38.0025 134.045 38.4472 134.249 38.8492C134.495 39.2468 134.862 39.5558 135.295 39.7318C135.736 39.9392 136.208 40.0892 136.663 40.354C136.891 40.4886 137.094 40.6618 137.263 40.8659C137.425 41.0758 137.535 41.3206 137.585 41.5808C137.652 42.0766 137.619 42.5807 137.488 43.0636C137.377 43.5074 137.31 43.9613 137.29 44.4184C137.291 44.8498 137.407 45.273 137.625 45.6453C138.054 46.3353 138.655 46.9024 139.368 47.2913C140.03 47.6797 140.692 47.9753 141.275 48.3019C141.807 48.5807 142.294 48.9393 142.718 49.3654C143.037 49.6917 143.291 50.0769 143.463 50.4996C143.572 50.7661 143.63 51.0504 143.636 51.3381C143.641 51.413 143.641 51.4882 143.636 51.5631C143.644 51.5896 143.64 51.6161 143.636 51.6161Z" fill="#263238"/>
<path d="M130.735 54.6526C130.667 54.6863 130.594 54.7087 130.519 54.7187C130.429 54.7406 130.338 54.7554 130.245 54.7629C130.121 54.7816 129.996 54.7904 129.87 54.7894C129.056 54.7901 128.261 54.5406 127.593 54.0744C127.126 53.7588 126.735 53.3445 126.446 52.8609C126.138 52.2967 125.937 51.6802 125.854 51.0427C125.775 50.3633 125.581 49.7024 125.281 49.0877C124.936 48.4743 124.297 48.0683 123.718 47.5431C123.128 47.031 122.742 46.3226 122.633 45.5484C122.53 44.8291 122.675 44.0961 123.043 43.4699C123.403 42.9597 123.711 42.4158 123.966 41.8459C124.139 41.3368 124.203 40.7972 124.155 40.2616C124.068 39.4772 123.879 38.7074 123.595 37.9712C123.484 37.7017 123.388 37.4262 123.308 37.146C123.354 37.2067 123.391 37.2736 123.418 37.3446C123.48 37.4814 123.573 37.68 123.679 37.9403C124 38.6754 124.216 39.4526 124.319 40.2484C124.378 40.8089 124.32 41.3757 124.147 41.9121C123.897 42.4959 123.589 43.0532 123.229 43.5758C122.887 44.1617 122.756 44.847 122.858 45.5175C122.96 46.2395 123.32 46.8998 123.873 47.3754C124.425 47.8785 125.095 48.3022 125.475 48.973C125.787 49.6102 125.986 50.2972 126.062 51.003C126.135 51.6198 126.32 52.2181 126.609 52.7682C126.878 53.2342 127.246 53.6362 127.686 53.9465C128.323 54.409 129.083 54.6716 129.87 54.7011C130.426 54.7143 130.731 54.6261 130.735 54.6526Z" fill="#263238"/>
<path d="M143.613 33.5582C143.656 33.6094 143.682 33.6726 143.688 33.7391C143.698 33.8345 143.687 33.9308 143.658 34.022C143.628 34.1131 143.58 34.1971 143.516 34.2687C143.418 34.3863 143.297 34.4826 143.16 34.5517C143.024 34.6208 142.875 34.6611 142.722 34.6703C142.327 34.6462 141.944 34.5314 141.601 34.3349C141.205 34.1137 140.765 33.9841 140.312 33.9554C139.786 33.9415 139.261 33.9889 138.746 34.0966C138.165 34.2224 137.574 34.2977 136.98 34.3216C136.312 34.3481 135.661 34.1103 135.167 33.6597C134.723 33.1898 134.37 32.6423 134.125 32.0445C133.899 31.5088 133.615 30.9997 133.278 30.5264C132.99 30.1392 132.595 29.8445 132.142 29.6783C131.689 29.5121 131.197 29.4817 130.727 29.5909C130.087 29.7612 129.535 30.1701 129.187 30.7338C129.064 30.9445 128.955 31.1626 128.86 31.387C128.86 31.387 128.86 31.3208 128.896 31.1972C128.944 31.0182 129.015 30.8462 129.107 30.6853C129.389 30.1654 129.842 29.7593 130.389 29.5364C130.936 29.3134 131.544 29.2874 132.108 29.4629C132.636 29.6275 133.099 29.9531 133.432 30.394C133.783 30.8775 134.079 31.3985 134.315 31.9474C134.551 32.5182 134.889 33.0415 135.312 33.492C135.762 33.9048 136.357 34.1223 136.967 34.0966C137.549 34.0741 138.127 34.0033 138.697 33.8847C139.229 33.7794 139.771 33.7379 140.312 33.7612C140.788 33.8082 141.247 33.9588 141.658 34.2025C141.978 34.3964 142.337 34.517 142.708 34.5555C142.846 34.5513 142.981 34.5199 143.106 34.4631C143.231 34.4062 143.343 34.3252 143.437 34.2246C143.498 34.1632 143.546 34.0902 143.579 34.0099C143.611 33.9295 143.628 33.8435 143.626 33.7568C143.613 33.62 143.578 33.5626 143.613 33.5582Z" fill="#455A64"/>
<path d="M141.112 32.2828C140.382 32.1152 139.732 31.7004 139.273 31.1088C138.814 30.5171 138.573 29.7849 138.592 29.0361C138.611 28.2873 138.887 27.568 139.376 27C139.864 26.432 140.533 26.0501 141.271 25.9192C141.619 25.8336 141.985 25.8452 142.327 25.9525C142.669 26.0599 142.976 26.259 143.213 26.5282C143.619 27.0798 143.592 27.9051 144.095 28.3552C144.598 28.8053 145.499 28.6288 146.214 28.7965C146.761 28.9528 147.236 29.2985 147.553 29.7721C147.87 30.2457 148.008 30.8164 147.943 31.3825C147.853 31.9453 147.617 32.4746 147.259 32.9175C146.9 33.3605 146.432 33.7016 145.9 33.9068C144.823 34.2998 143.646 34.3215 142.555 33.9686C141.474 33.6179 140.446 33.1189 139.501 32.4858" fill="#263238"/>
<path d="M146.429 29.0834C146.387 29.3757 146.277 29.6539 146.107 29.8954C145.739 30.508 145.231 31.0239 144.624 31.4003C144.017 31.7791 143.329 32.0089 142.616 32.0711C142.321 32.1167 142.019 32.0941 141.733 32.0049C141.733 31.9651 142.069 32.0049 142.585 31.9078C143.26 31.8052 143.907 31.5665 144.487 31.2061C145.065 30.8425 145.565 30.3668 145.957 29.8072C146.261 29.3791 146.394 29.0702 146.429 29.0834Z" fill="#455A64"/>
<path d="M144.09 33.9774C143.522 33.228 142.808 32.6005 141.993 32.1321C141.177 31.6636 140.276 31.3637 139.342 31.2501C139.62 31.1959 139.906 31.1959 140.185 31.2501C141.551 31.4505 142.791 32.1617 143.653 33.2404C143.849 33.453 143.997 33.704 144.09 33.9774Z" fill="#FF725E"/>
<path d="M111.932 82.04L104.778 80.6543L106.067 82.4857L103.013 84.0126L100.458 82.8167C100.657 83.3388 100.906 83.8399 101.204 84.3127C101.764 85.2439 102.528 85.9941 102.996 86.0294C103.152 86.674 103.478 87.2651 103.94 87.7416C104.355 88.1555 104.871 88.4545 105.436 88.6092C106.002 88.7639 106.598 88.7691 107.166 88.6243L111.972 86.8855L111.932 82.04Z" fill="#FFBE9D"/>
<path d="M104.717 85.6279C104.598 85.7759 104.449 85.8958 104.279 85.979C104.108 86.0622 103.922 86.1066 103.733 86.1089C103.547 86.1476 103.355 86.146 103.17 86.1041C102.985 86.0623 102.811 85.9811 102.66 85.8662C102.687 85.8 103.141 85.95 103.706 85.8662C104.271 85.7823 104.681 85.5705 104.717 85.6279Z" fill="#EB996E"/>
<path d="M105.661 87.1502C105.705 87.1943 105.396 87.5385 104.867 87.6753C104.713 87.7348 104.549 87.7593 104.384 87.7471C104.22 87.7349 104.061 87.6863 103.918 87.6047C103.918 87.5385 104.359 87.5783 104.801 87.4547C105.242 87.3311 105.608 87.1017 105.661 87.1502Z" fill="#EB996E"/>
<path d="M107.458 81.7617C107.262 81.9029 107.054 82.0255 106.836 82.128C106.452 82.3442 105.953 82.7061 105.393 83.0945C104.913 83.4424 104.379 83.7093 103.813 83.8844C103.579 83.9725 103.326 83.9954 103.08 83.9506C103.08 83.9153 103.354 83.8844 103.764 83.7299C104.294 83.5128 104.797 83.2359 105.265 82.9047C105.739 82.5595 106.239 82.2512 106.761 81.9824C106.973 81.8565 107.212 81.781 107.458 81.7617Z" fill="#EB996E"/>
<path d="M150.851 93.9155C150.851 93.9155 151.094 94.07 151.703 95.1512C153.569 98.483 154.324 106.466 147.29 113.593C138.19 122.799 127.533 137.865 127.533 137.865L119.148 173.24L106.509 170.5L113.022 133.734L130.882 100.601L150.851 93.9155Z" fill="#263238"/>
<path d="M164.792 162.379L145.321 132.583L139.417 106.863L124.377 114.255L131.919 140.358L155.983 170.332L164.792 162.379Z" fill="#263238"/>
<path d="M119.156 173.24C119.159 173.18 119.17 173.121 119.187 173.063C119.214 172.94 119.249 172.772 119.293 172.556C119.399 172.115 119.545 171.448 119.734 170.61L121.389 163.469C122.806 157.432 124.761 149.114 126.923 139.926C127.091 139.211 127.259 138.5 127.417 137.838V137.808C132.934 130.747 137.96 124.502 141.658 120.067C143.512 117.861 145.026 116.095 146.098 114.886C146.623 114.282 147.056 113.831 147.342 113.523L147.669 113.174C147.744 113.094 147.784 113.055 147.788 113.059C147.758 113.105 147.724 113.147 147.687 113.187L147.373 113.549C147.1 113.871 146.68 114.33 146.16 114.944C145.109 116.157 143.618 117.94 141.782 120.169C138.115 124.63 133.11 130.892 127.598 137.949V137.905C127.444 138.567 127.276 139.277 127.104 139.992L121.548 163.509C120.82 166.506 120.224 168.937 119.823 170.632C119.615 171.461 119.456 172.115 119.342 172.565C119.289 172.781 119.245 172.944 119.214 173.068C119.2 173.127 119.181 173.184 119.156 173.24Z" fill="#455A64"/>
<path d="M141.99 103.32C141.9 103.394 141.796 103.451 141.685 103.487C141.393 103.614 141.09 103.713 140.78 103.783C139.749 104.019 138.674 103.987 137.657 103.691C136.641 103.395 135.717 102.845 134.973 102.093C134.749 101.867 134.545 101.622 134.364 101.36C134.24 101.171 134.183 101.06 134.196 101.051C134.209 101.043 134.505 101.44 135.079 101.974C135.829 102.671 136.731 103.183 137.714 103.47C138.697 103.756 139.734 103.809 140.741 103.624C141.522 103.483 141.976 103.284 141.99 103.32Z" fill="#455A64"/>
<path d="M152.726 95.4421C145.11 99.4536 132.749 101.85 128.794 100.221L128.658 85.5481C128.658 85.5481 123.243 76.6205 123.221 73.2445C123.19 68.3901 129.249 57.2825 129.249 57.2825L138.344 54.8421C140.176 54.8031 141.988 55.2249 143.613 56.0689C145.315 57.0115 146.699 58.4363 147.591 60.164C148.484 61.8916 148.846 63.8448 148.631 65.7776L146.341 80.376L152.726 95.4421Z" fill="#FF725E"/>
<g opacity="0.3">
<path opacity="0.3" d="M142.964 56.0557C143.494 55.9763 143.688 56.8368 143.313 57.2164C142.938 57.5959 142.342 57.6135 141.817 57.693C139.447 58.0637 137.616 60.0937 136.755 62.3311C135.894 64.5685 135.811 67.0133 135.669 69.3919C135.528 71.7706 135.294 74.2463 134.169 76.369C133.118 74.5063 132.495 72.433 132.346 70.2997C132.196 68.1663 132.524 66.0264 133.304 64.0353C134.084 62.0442 135.299 60.2519 136.858 58.7885C138.417 57.325 140.283 56.2272 142.32 55.5747" fill="black"/>
</g>
<path d="M143.614 56.0691C143.614 56.0691 142.29 53.9112 137.912 54.8467C134.982 55.4734 128.574 61.6296 130.361 71.5192C132.149 81.4089 136.941 84.9128 136.941 84.9128C136.941 84.9128 132.528 69.7717 134.982 63.1653C135.624 61.3002 136.771 59.6497 138.295 58.397C139.818 57.1443 141.66 56.3385 143.614 56.0691Z" fill="#263238"/>
<g opacity="0.3">
<path opacity="0.3" d="M128.825 88.6639C130.639 89.2464 132.378 89.9878 134.266 90.2261C136.156 90.5363 138.095 90.3336 139.88 89.6392C142.303 88.6065 144.103 86.4 145.03 83.9331C145.957 81.4662 146.085 78.7654 145.837 76.1396C144.183 78.1873 144.381 81.2191 142.973 83.4477C142.091 84.8378 140.657 85.7866 139.183 86.5368C135.957 88.0875 132.401 88.8225 128.825 88.6771" fill="black"/>
</g>
<path d="M134.279 73.6729C134.279 73.6729 133.688 84.8114 147.276 82.596L148.644 85.8176C148.644 85.8176 134.359 88.8361 132.315 76.9915L134.279 73.6729Z" fill="#263238"/>
<path d="M146.663 59.8291C147.235 60.6788 147.62 61.64 147.794 62.6493C147.967 63.6587 147.925 64.6934 147.669 65.6852L144.284 80.8352C142.833 85.0982 138.689 87.6886 136.112 88.0329L111.977 90.588V81.581L134.382 78.2535L135.432 65.9853C135.525 64.3348 136.337 61.3692 137.387 60.0895C138.561 58.664 140.366 56.7223 143.314 57.2166C145.119 57.5166 145.886 58.7214 146.663 59.8291Z" fill="#FF725E"/>
<path d="M147.361 66.2766C147.365 66.3903 147.357 66.5041 147.339 66.6164C147.312 66.8415 147.273 67.168 147.215 67.5917C147.101 68.439 146.924 69.657 146.655 71.1574C146.386 72.6579 146.041 74.4452 145.587 76.409C145.362 77.3887 145.119 78.4213 144.823 79.4981C144.534 80.6006 144.138 81.6722 143.641 82.6975C143.138 83.7289 142.446 84.6569 141.602 85.4336C140.815 86.1538 139.922 86.7491 138.954 87.1989C137.313 87.9342 135.56 88.3892 133.769 88.5448C132.246 88.6993 131.011 88.7081 130.159 88.7169H129.175C129.062 88.7273 128.948 88.7273 128.835 88.7169C128.947 88.697 129.061 88.6881 129.175 88.6905L130.154 88.6507C131.006 88.6154 132.242 88.5801 133.751 88.4036C135.519 88.2292 137.245 87.7639 138.861 87.0267C139.81 86.5882 140.687 86.0079 141.461 85.3057C142.281 84.5419 142.954 83.6339 143.447 82.6269C143.936 81.6148 144.328 80.5582 144.616 79.4716C144.912 78.4213 145.159 77.3931 145.393 76.4134C145.834 74.454 146.222 72.6799 146.505 71.1839C146.787 69.6879 146.995 68.4743 147.136 67.6535C147.206 67.2519 147.259 66.9297 147.299 66.687C147.309 66.5488 147.33 66.4117 147.361 66.2766Z" fill="#263238"/>
<path d="M135.031 80.8351C134.779 80.426 134.596 79.9789 134.488 79.5112C134.304 79.0716 134.194 78.605 134.161 78.1299C134.597 78.9728 134.895 79.8802 135.044 80.8174L135.031 80.8351Z" fill="#263238"/>
<path d="M136.403 80.4908C135.926 80.2674 135.506 79.9402 135.172 79.5332C134.784 79.1793 134.482 78.7416 134.289 78.2534C134.666 78.6052 135.02 78.9811 135.348 79.3787C135.725 79.7248 136.077 80.0964 136.403 80.4908Z" fill="#263238"/>
<path d="M114.077 81.2719L114.179 81.2455L114.479 81.1881L115.635 80.9983L119.929 80.3231L134.346 78.1431L134.249 78.2446C134.329 77.4061 134.412 76.5235 134.501 75.6232C134.788 72.4414 135.092 69.4097 135.242 66.6427C135.347 65.3272 135.598 64.0275 135.992 62.7681C136.309 61.6531 136.846 60.6131 137.572 59.7098C139.002 58.152 140.604 57.3268 141.782 57.1767C142.232 57.1126 142.69 57.1216 143.137 57.2032C143.287 57.2341 143.402 57.2694 143.477 57.2915L143.592 57.3312C143.002 57.1959 142.393 57.1735 141.795 57.265C140.648 57.4371 139.086 58.2712 137.696 59.8201C136.992 60.7094 136.476 61.7316 136.178 62.8254C135.793 64.0724 135.55 65.3589 135.454 66.6604C135.317 69.4273 135.013 72.4635 134.726 75.6453C134.642 76.5279 134.558 77.4105 134.474 78.2667V78.3549H134.386L119.938 80.4644L115.635 81.0645L114.47 81.219L114.17 81.2543L114.077 81.2719Z" fill="#263238"/>
<path d="M127.89 88.6109C127.828 88.6109 127.572 86.5764 127.321 84.0566C127.069 81.5367 126.915 79.4803 126.976 79.4714C127.246 80.98 127.438 82.5017 127.55 84.0301C127.742 85.5502 127.855 87.0791 127.89 88.6109Z" fill="#FAFAFA"/>
<path d="M145.56 74.9347C145.049 74.9787 144.536 74.986 144.024 74.9568C143.075 74.9568 141.769 74.9038 140.322 74.8509C138.874 74.7979 137.568 74.7361 136.624 74.6788C136.112 74.6705 135.602 74.6248 135.097 74.5419C135.607 74.4919 136.121 74.483 136.632 74.5155C137.577 74.5155 138.887 74.5684 140.331 74.6214C141.774 74.6743 143.08 74.7361 144.029 74.7935C144.542 74.7996 145.054 74.8468 145.56 74.9347Z" fill="#FAFAFA"/>
<path d="M130.238 72.0532C129.91 72.1374 129.574 72.1818 129.236 72.1856C128.618 72.2297 127.758 72.2606 126.809 72.243C125.86 72.2253 124.999 72.1591 124.382 72.0885C124.045 72.0735 123.711 72.0157 123.389 71.9164C123.723 71.8833 124.06 71.8833 124.395 71.9164C125.013 71.9473 125.869 71.9826 126.813 72.0003C127.758 72.0179 128.614 72.0003 129.232 72.0003C129.568 71.9807 129.905 71.9985 130.238 72.0532Z" fill="#FAFAFA"/>
<path d="M132.232 61.5853C132.197 61.6427 131.27 61.144 130.07 60.7027C128.869 60.2614 127.863 59.9922 127.863 59.926C129.432 60.1176 130.932 60.687 132.232 61.5853Z" fill="#FAFAFA"/>
<path d="M149.761 89.1184C149.7 89.1618 149.633 89.196 149.562 89.2199L148.98 89.4582C148.477 89.6656 147.735 89.9392 146.813 90.2614C144.406 91.0902 141.956 91.7884 139.474 92.3532C136.992 92.9311 134.48 93.3731 131.95 93.6771C130.979 93.7874 130.185 93.8624 129.646 93.8977L129.019 93.933C128.946 93.9447 128.872 93.9447 128.799 93.933C128.869 93.9087 128.941 93.8939 129.015 93.8889L129.637 93.8095C130.18 93.7477 130.961 93.6506 131.932 93.5182C133.861 93.2534 136.522 92.8165 139.434 92.1546C142.347 91.4926 144.92 90.7248 146.773 90.1202C147.7 89.8201 148.45 89.5685 148.98 89.3876L149.575 89.189C149.635 89.1599 149.697 89.1362 149.761 89.1184Z" fill="#FAFAFA"/>
<path d="M148.322 62.7284C148.322 62.7902 145.718 62.7593 142.51 62.6534C139.302 62.5475 136.707 62.4151 136.707 62.3533C136.707 62.2915 139.311 62.3224 142.519 62.4239C145.727 62.5254 148.322 62.6622 148.322 62.7284Z" fill="#FAFAFA"/>
<path d="M117.224 89.9215C117.054 88.4564 116.96 86.9834 116.942 85.5085C116.846 84.0395 116.828 82.5664 116.889 81.0955C117.059 82.5606 117.153 84.0336 117.171 85.5085C117.267 86.9775 117.285 88.4506 117.224 89.9215Z" fill="#FAFAFA"/>
<path d="M67.854 44.789C71.783 44.0597 75.8393 44.4859 79.5309 46.0159C81.1682 46.6999 82.7922 47.6664 83.6748 49.2065C84.7251 51.0247 84.5574 53.2665 84.4382 55.3627C84.2075 59.6333 84.3551 63.916 84.8795 68.1605C85.3208 71.691 86.0137 75.2214 86.0005 78.7518C85.9872 82.2823 85.1929 85.9981 82.9643 88.7695C79.5265 93.0369 73.4056 94.2372 67.9599 93.5091C65.1003 93.1295 62.245 92.2734 59.9105 90.57C57.576 88.8665 55.8285 86.2408 55.6299 83.3635" fill="#455A64"/>
<path d="M74.6592 50.1995C75.1682 50.8015 75.601 51.4641 75.9478 52.1721C76.3059 52.9519 76.6011 53.7591 76.8304 54.586C77.106 55.6113 77.4465 56.6181 77.8498 57.6001C78.2702 58.5992 78.924 59.483 79.7562 60.1774C80.4501 60.7478 81.3205 61.0598 82.2187 61.06C82.8153 61.0658 83.4008 60.8987 83.9045 60.5789C84.0392 60.4902 84.1622 60.3849 84.2708 60.2656C84.3458 60.1862 84.3811 60.1376 84.3723 60.1332C84.3635 60.1288 84.1958 60.2789 83.8427 60.4819C83.3433 60.755 82.7786 60.8862 82.2099 60.8614C81.3658 60.8354 80.5554 60.5243 79.9107 59.9788C79.1258 59.3016 78.5093 58.451 78.1102 57.4942C77.709 56.5235 77.3642 55.5304 77.0775 54.5198C76.834 53.6848 76.518 52.8727 76.1331 52.0927C75.8686 51.5664 75.5347 51.0781 75.1402 50.6408C75.0062 50.4673 74.8435 50.3181 74.6592 50.1995Z" fill="#263238"/>
<path d="M76.216 93.2357C76.25 93.1235 76.2722 93.0082 76.2822 92.8914C76.3175 92.6325 76.3617 92.2972 76.4146 91.8853C76.525 91.0027 76.6706 89.7494 76.8559 88.1871C77.1869 85.0583 77.5841 80.7335 77.9283 75.9498C78.2725 71.166 78.4799 66.8236 78.5947 63.6771C78.652 62.106 78.6874 60.8351 78.7006 59.9569C78.7006 59.5421 78.7006 59.2067 78.7006 58.9463C78.7141 58.829 78.7141 58.7106 78.7006 58.5933C78.6758 58.7079 78.6625 58.8246 78.6609 58.9419C78.6609 59.2067 78.6212 59.5377 78.5947 59.9525C78.5461 60.866 78.4799 62.1281 78.3961 63.6683C78.2284 66.8104 77.9813 71.144 77.6459 75.9277C77.3105 80.7114 76.9354 85.0362 76.6573 88.1651C76.5205 89.7052 76.4102 90.9629 76.3308 91.872C76.2955 92.2869 76.269 92.6223 76.2513 92.8826C76.2259 92.9985 76.214 93.117 76.216 93.2357Z" fill="#263238"/>
<path d="M77.96 74.0697C77.96 74.1448 79.6634 74.3831 81.7949 74.436C83.9264 74.489 85.6475 74.3478 85.6431 74.2683C85.6387 74.1889 83.922 74.2021 81.8037 74.1448C79.6855 74.0874 77.9688 73.9859 77.96 74.0697Z" fill="#263238"/>
<path d="M79.3464 74.2595C79.1742 74.49 79.0538 74.7549 78.9933 75.0362C78.8977 75.3251 78.821 75.6199 78.7639 75.9188C78.7154 76.116 78.7154 76.3219 78.7639 76.519C78.7973 76.6392 78.8639 76.7477 78.9559 76.8319C79.048 76.9162 79.1619 76.9729 79.2846 76.9956C79.3538 77.0062 79.4245 77.0014 79.4916 76.9815C79.5587 76.9617 79.6206 76.9273 79.6729 76.8809C79.7674 76.7966 79.8311 76.6832 79.8539 76.5587C79.8845 76.3658 79.8845 76.1692 79.8539 75.9762C79.823 75.6655 79.764 75.3583 79.6774 75.0583C79.6255 74.7732 79.5076 74.5042 79.3331 74.2728C79.3504 74.5553 79.3993 74.8351 79.4788 75.1068C79.5317 75.3986 79.5671 75.6934 79.5847 75.9894C79.6093 76.1533 79.6093 76.3199 79.5847 76.4837C79.5494 76.6337 79.4567 76.7176 79.3376 76.6999C79.0331 76.647 78.9669 76.2586 79.0286 75.9541C79.0904 75.6496 79.139 75.3142 79.1919 75.0715C79.2775 74.8085 79.3294 74.5356 79.3464 74.2595Z" fill="#263238"/>
<path d="M63.8204 45.8606L82.2878 46.47C84.6238 46.5471 86.5801 44.7159 86.6572 42.3798L86.7756 38.7895C86.8527 36.4535 85.0215 34.4972 82.6854 34.4202L64.218 33.8108C61.882 33.7337 59.9257 35.5649 59.8486 37.901L59.7302 41.4913C59.6531 43.8273 61.4843 45.7836 63.8204 45.8606Z" fill="#263238"/>
<path d="M82.2454 34.648C82.2454 34.648 82.1968 34.6039 82.0865 34.5509C81.9226 34.4742 81.7488 34.4207 81.5702 34.392C80.9035 34.2921 80.2226 34.4196 79.6373 34.7539C78.7488 35.1944 77.9945 35.8649 77.4528 36.6956C76.8304 37.7343 76.4741 38.9107 76.4157 40.1202C76.2994 41.3328 76.5467 42.5526 77.1262 43.6241C77.6028 44.4996 78.3316 45.2115 79.218 45.6674C79.8071 45.9735 80.4567 46.1453 81.1201 46.1704C81.2999 46.1779 81.4801 46.1691 81.6584 46.144C81.7212 46.1423 81.7829 46.1273 81.8394 46.0998C81.8394 46.0734 81.5834 46.0998 81.1289 46.0557C80.4914 45.9905 79.8741 45.7952 79.3151 45.482C78.4834 45.0253 77.8037 44.3349 77.3601 43.4961C76.8213 42.4653 76.5944 41.2999 76.707 40.1422C76.7634 38.979 77.0963 37.8459 77.6779 36.8369C78.1891 36.0371 78.8972 35.3821 79.7344 34.9348C80.2807 34.6005 80.9182 34.4461 81.5569 34.4935C82.0071 34.5421 82.2366 34.6745 82.2454 34.648Z" fill="#455A64"/>
<path d="M71.8521 34.0127L74.6588 34.1539C73.8874 34.272 73.1841 34.6636 72.6774 35.2572C72.1772 35.8479 71.8086 36.5385 71.5962 37.2828C70.6209 40.3719 71.7992 44.07 74.244 46.2015L71.9713 46.1662C71.9713 46.1662 66.4417 39.4937 71.8345 34.0127" fill="#455A64"/>
<path d="M58.1359 28.7257C56.9885 25.9499 56.9267 21.1308 58.6787 18.5757C60.4307 16.0205 63.714 14.3656 66.7281 13.7213C67.2241 13.5688 67.7546 13.5688 68.2506 13.7213C68.4922 13.8122 68.6908 13.9907 68.8068 14.2212C68.9229 14.4518 68.9481 14.7176 68.8772 14.9658C69.463 14.5637 70.1118 14.2624 70.7969 14.0744C71.1414 13.9771 71.5045 13.9665 71.8541 14.0434C72.2036 14.1204 72.5287 14.2827 72.8004 14.5157C72.9314 14.6355 73.0369 14.7805 73.1107 14.9419C73.1845 15.1034 73.2251 15.278 73.23 15.4554C73.235 15.6329 73.2042 15.8095 73.1395 15.9748C73.0748 16.1401 72.9775 16.2907 72.8534 16.4177C73.2781 16.2602 73.7398 16.2311 74.1809 16.3342C74.622 16.4372 75.023 16.6677 75.334 16.9971C75.645 17.3264 75.8522 17.74 75.9298 18.1863C76.0074 18.6326 75.952 19.0918 75.7704 19.5068C75.3577 20.3567 74.7854 21.1193 74.0846 21.7531C73.4536 22.3356 73.3477 22.9357 73.4536 23.7875" fill="#263238"/>
<path d="M58.8558 23.6374L58.0615 40.6188C58.0286 41.3033 58.1352 41.9873 58.3749 42.6292C58.6146 43.2711 58.9824 43.8576 59.4559 44.353C59.9294 44.8483 60.4986 45.2422 61.1291 45.5106C61.7596 45.7791 62.438 45.9165 63.1233 45.9145C64.4204 45.9079 65.6654 45.4032 66.6009 44.5046C67.5364 43.6061 68.0909 42.3824 68.1497 41.0866C68.2071 39.8068 68.26 38.7389 68.2733 38.6109C68.2733 38.6109 72.6157 38.4079 73.1276 34.1449C73.3748 32.084 73.5425 27.7989 73.644 23.9199C73.6976 21.9107 72.9927 19.9551 71.6695 18.4422C70.3464 16.9293 68.502 15.9702 66.5037 15.7557L66.0932 15.7116C61.6361 15.4909 58.9529 19.1626 58.8558 23.6374Z" fill="#FFBE9D"/>
<path d="M68.3 38.5489C66.3256 38.3745 64.4481 37.6155 62.9072 36.3689C62.9072 36.3689 63.7589 39.0388 68.0572 39.1138L68.3 38.5489Z" fill="#EB996E"/>
<path d="M72.121 26.6425C72.1053 26.8022 72.0277 26.9494 71.9047 27.0525C71.7818 27.1556 71.6234 27.2065 71.4634 27.1941C71.3854 27.1919 71.3085 27.174 71.2375 27.1415C71.1665 27.109 71.1028 27.0626 71.0501 27.0049C70.9974 26.9473 70.9568 26.8796 70.9308 26.806C70.9047 26.7324 70.8938 26.6543 70.8985 26.5763C70.9142 26.4175 70.9912 26.271 71.1132 26.168C71.2351 26.065 71.3924 26.0136 71.5517 26.0247C71.6297 26.0275 71.7065 26.0458 71.7774 26.0784C71.8484 26.1111 71.9122 26.1575 71.9651 26.2149C72.018 26.2724 72.0591 26.3397 72.0858 26.4131C72.1126 26.4865 72.1245 26.5645 72.121 26.6425Z" fill="#263238"/>
<path d="M72.514 25.9145C72.4302 25.9851 72.0065 25.5968 71.349 25.5262C70.6914 25.4556 70.1795 25.7336 70.1178 25.6453C70.056 25.5571 70.1751 25.4688 70.4046 25.3408C70.7094 25.1756 71.0575 25.1078 71.4019 25.1466C71.7437 25.1826 72.0652 25.3263 72.3199 25.5571C72.5052 25.7159 72.5626 25.8836 72.514 25.9145Z" fill="#263238"/>
<path d="M65.6478 26.1572C65.6321 26.3161 65.5551 26.4626 65.4332 26.5656C65.3112 26.6686 65.1539 26.72 64.9947 26.7088C64.9166 26.706 64.8399 26.6877 64.769 26.6551C64.698 26.6224 64.6342 26.576 64.5813 26.5186C64.5283 26.4612 64.4873 26.3938 64.4606 26.3204C64.4338 26.247 64.4219 26.1691 64.4254 26.091C64.44 25.9317 64.5167 25.7846 64.6389 25.6813C64.7611 25.5781 64.919 25.5271 65.0785 25.5394C65.157 25.541 65.2343 25.5585 65.3058 25.5907C65.3773 25.623 65.4416 25.6694 65.4948 25.7271C65.5479 25.7848 65.5889 25.8526 65.6152 25.9265C65.6415 26.0004 65.6526 26.0789 65.6478 26.1572Z" fill="#263238"/>
<path d="M66.0533 25.341C65.9694 25.4117 65.5458 25.0233 64.8882 24.9527C64.2307 24.8821 63.7144 25.1601 63.6526 25.0719C63.5908 24.9836 63.7144 24.8997 63.9394 24.7674C64.2459 24.6026 64.5953 24.5349 64.9412 24.5732C65.2824 24.6112 65.6033 24.7546 65.8591 24.9836C66.04 25.1601 66.093 25.3102 66.0533 25.341Z" fill="#263238"/>
<path d="M67.9111 30.4646C68.268 30.3906 68.633 30.3639 68.9967 30.3852C69.1644 30.3852 69.3277 30.3852 69.3674 30.2616C69.4018 30.0906 69.3818 29.9131 69.3101 29.7541L68.9526 28.4302C68.4584 26.5414 68.123 24.9924 68.198 24.9748C68.273 24.9571 68.7364 26.4708 69.2306 28.364C69.3454 28.8053 69.4601 29.2731 69.566 29.6879C69.6439 29.9032 69.6439 30.139 69.566 30.3543C69.5364 30.4113 69.4938 30.4605 69.4417 30.4981C69.3896 30.5357 69.3294 30.5605 69.2659 30.5705C69.1707 30.5833 69.0743 30.5833 68.9791 30.5705C68.62 30.5819 68.261 30.5463 67.9111 30.4646Z" fill="#263238"/>
<path d="M65.9427 30.7115C66.0487 30.7115 65.9736 31.4264 66.5297 32.0001C67.0857 32.5738 67.8536 32.5738 67.8536 32.6753C67.8536 32.7768 67.6727 32.7945 67.3505 32.768C66.932 32.7299 66.5408 32.5436 66.2472 32.2428C65.9656 31.9568 65.8072 31.5719 65.8059 31.1705C65.7839 30.8704 65.881 30.7027 65.9427 30.7115Z" fill="#263238"/>
<path d="M66.499 22.7901C66.4152 22.9622 65.7709 22.7901 64.9898 22.8166C64.2087 22.8431 63.5644 22.9666 63.4805 22.8166C63.4452 22.7327 63.5688 22.5783 63.838 22.4326C64.1949 22.2522 64.5898 22.1598 64.9898 22.1634C65.3887 22.1596 65.7831 22.2488 66.1416 22.4238C66.4108 22.5518 66.5388 22.7063 66.499 22.7901Z" fill="#263238"/>
<path d="M72.479 23.9904C72.3466 24.1272 71.9141 23.9242 71.3713 23.8581C70.8285 23.7919 70.3563 23.8581 70.268 23.6815C70.2283 23.6021 70.3166 23.4609 70.5328 23.3417C70.8191 23.2063 71.1387 23.1576 71.4524 23.2015C71.766 23.2454 72.0599 23.38 72.298 23.5889C72.4922 23.761 72.5363 23.9242 72.479 23.9904Z" fill="#263238"/>
<path d="M58.8814 26.8369C58.8108 26.7972 56.0438 25.6542 55.8187 28.5801C55.5937 31.5059 58.5857 31.1308 58.5945 31.047C58.6034 30.9631 58.8814 26.8369 58.8814 26.8369Z" fill="#FFBE9D"/>
<path d="M57.7695 29.8685C57.7695 29.8685 57.7165 29.8994 57.6238 29.9347C57.5017 29.982 57.3664 29.982 57.2443 29.9347C57.0641 29.8003 56.9229 29.6202 56.8352 29.4132C56.7476 29.2061 56.7167 28.9794 56.7456 28.7564C56.758 28.5049 56.8258 28.2593 56.9442 28.0371C56.9787 27.9484 57.034 27.8692 57.1054 27.8063C57.1768 27.7433 57.2623 27.6984 57.3546 27.6752C57.4146 27.664 57.4766 27.6742 57.5299 27.704C57.5831 27.7339 57.6242 27.7815 57.6459 27.8385C57.6812 27.9224 57.6459 27.9797 57.6724 27.9841C57.6988 27.9886 57.7386 27.94 57.7253 27.8209C57.7132 27.7469 57.6776 27.6788 57.6238 27.6267C57.5475 27.5591 57.4476 27.5242 57.3458 27.5296C57.224 27.5444 57.108 27.5904 57.0091 27.663C56.9101 27.7357 56.8316 27.8326 56.7809 27.9444C56.6357 28.1881 56.5538 28.4642 56.5426 28.7476C56.5069 29.0073 56.5491 29.2717 56.6638 29.5074C56.7785 29.7431 56.9605 29.9394 57.1869 30.0715C57.2643 30.1008 57.3473 30.1124 57.4297 30.1055C57.5122 30.0986 57.5921 30.0735 57.6635 30.0318C57.7562 29.9391 57.7783 29.8729 57.7695 29.8685Z" fill="#EB996E"/>
<path d="M75.9469 18.5362C75.9998 22.3579 71.2028 23.5847 69.3273 21.3076C68.4447 20.2529 67.7165 18.9599 66.4588 18.4215C66.0284 18.2542 65.569 18.1747 65.1075 18.1876C64.6459 18.2005 64.1916 18.3055 63.7713 18.4965H63.7448C62.4915 19.0305 61.6707 20.372 61.3794 21.7048C60.9778 23.5627 61.1499 25.2352 60.5321 26.9254C60.4686 27.1788 60.3226 27.4039 60.1173 27.5653C59.7466 27.7904 59.2346 27.53 58.9831 27.1814C58.5974 26.5894 58.3933 25.8976 58.3962 25.1911C58.2601 23.594 58.4431 21.9859 58.9346 20.4603C59.4332 18.9306 60.3691 17.5805 61.6265 16.5768C63.2474 15.3805 65.2693 14.86 67.2664 15.1249C69.2568 15.403 71.1094 16.2999 72.562 17.6889C73.264 18.3 73.8025 19.0766 74.1287 19.9484" fill="#263238"/>
<path d="M73.0037 16.2103C73.1409 16.192 73.2806 16.2087 73.4097 16.2589C73.7687 16.3791 74.0868 16.5978 74.3276 16.89C74.6997 17.3148 74.9174 17.8528 74.9454 18.4169C74.9505 19.1127 74.6974 19.7857 74.2349 20.3056C73.7905 20.8254 73.2097 21.2106 72.558 21.4177C72.0335 21.5857 71.4845 21.6648 70.934 21.6516C70.5665 21.645 70.2003 21.6066 69.8395 21.5369C69.7039 21.5239 69.5721 21.4849 69.4512 21.4221C69.4512 21.3824 70.0205 21.5104 70.9295 21.4928C71.4609 21.4825 71.9876 21.3918 72.4918 21.2236C73.1007 21.0151 73.643 20.6479 74.0628 20.16C74.4887 19.682 74.727 19.0659 74.7336 18.4257C74.72 17.9031 74.5355 17.3993 74.2084 16.9915C73.99 16.7122 73.7025 16.4946 73.3744 16.3604C73.1493 16.2457 73.0037 16.2324 73.0037 16.2103Z" fill="#455A64"/>
<path d="M71.1505 14.7186C71.1505 14.7186 71.2608 14.6922 71.4285 14.7892C71.5406 14.863 71.6352 14.9605 71.7053 15.0749C71.7755 15.1893 71.8196 15.3178 71.8345 15.4512C71.8631 15.8437 71.7538 16.2339 71.5256 16.5545C71.2844 16.9485 70.987 17.3053 70.643 17.6136C70.0157 18.1792 69.2573 18.5796 68.4364 18.7786C68.1041 18.8819 67.754 18.915 67.4082 18.8757C67.4082 18.8316 67.7965 18.8139 68.3923 18.6242C69.1655 18.388 69.8779 17.9859 70.4797 17.4459C70.8105 17.1516 71.1027 16.8165 71.349 16.4485C71.5616 16.1679 71.6763 15.8253 71.6756 15.4733C71.6683 15.357 71.638 15.2433 71.5865 15.1388C71.535 15.0342 71.4633 14.9409 71.3755 14.8643C71.2387 14.7583 71.1461 14.7363 71.1505 14.7186Z" fill="#455A64"/>
<path d="M58.741 56.4176L60.1134 46.3823L40.3915 50.354L22.4437 44.1184L17.5938 49.1052L36.6934 58.9418C38.3969 59.7554 40.3164 60.0013 42.17 59.6435L58.741 56.4176Z" fill="#FFBE9D"/>
<path d="M22.4437 44.1184C22.4437 44.1184 15.5814 40.8351 15.1401 40.7203C14.8003 40.6321 9.6194 40.3585 7.25842 40.2349C7.07337 40.2333 6.89443 40.301 6.75675 40.4247C6.61907 40.5483 6.53261 40.719 6.51436 40.9031C6.49611 41.0873 6.54739 41.2716 6.65812 41.4199C6.76886 41.5682 6.93103 41.6697 7.11279 41.7044H7.20105C8.52497 41.8148 11.4199 42.4767 11.4199 42.4767L10.096 45.5658C10.0318 45.7189 10.0209 45.8891 10.0649 46.0491C10.1089 46.2091 10.2053 46.3497 10.3387 46.4485L14.3325 49.4008C14.8555 49.6386 15.4318 49.7344 16.0035 49.6786C16.5753 49.6228 17.1222 49.4174 17.5894 49.083L19.3546 49.4449L22.4437 44.1184Z" fill="#FFBE9D"/>
<path d="M10.083 45.7601C10.2066 46.3382 11.5834 47.5253 12.6293 47.5253C12.86 47.5291 13.0842 47.4491 13.2604 47.3002C13.344 47.2219 13.4025 47.1206 13.4284 47.009C13.4544 46.8975 13.4466 46.7807 13.406 46.6736C13.3324 46.5417 13.2279 46.4297 13.1015 46.347L10.7803 44.5244" fill="#FFBE9D"/>
<path d="M10.7802 44.5244C11.1261 44.7094 11.4528 44.9282 11.7555 45.1775L12.7749 45.941C12.9691 46.091 13.1633 46.219 13.3751 46.4132C13.436 46.4698 13.4849 46.538 13.519 46.6138C13.5532 46.6896 13.5717 46.7714 13.5737 46.8545C13.5742 47.0149 13.5196 47.1707 13.4192 47.2958C13.3178 47.4101 13.1913 47.4994 13.0497 47.5568C12.9081 47.6142 12.7552 47.6382 12.6028 47.6268C12.339 47.6134 12.08 47.5505 11.8394 47.4414C11.4398 47.2693 11.0715 47.0322 10.7493 46.7398C10.5296 46.5459 10.3406 46.3197 10.1889 46.069C10.0874 45.8836 10.083 45.7601 10.0962 45.7601C10.1094 45.7601 10.1447 45.8616 10.2639 46.0204C10.4364 46.2421 10.6349 46.4421 10.8552 46.6162C11.1769 46.8775 11.5353 47.0901 11.9188 47.2473C12.1387 47.3395 12.3734 47.3918 12.6116 47.4017C12.728 47.4105 12.8448 47.3929 12.9533 47.3501C13.0619 47.3073 13.1593 47.2404 13.2383 47.1546C13.309 47.0741 13.3481 46.9705 13.3481 46.8633C13.3481 46.7561 13.309 46.6526 13.2383 46.5721C13.0706 46.4132 12.8455 46.2587 12.669 46.1308L11.6628 45.3055C11.3415 45.0776 11.0455 44.8157 10.7802 44.5244Z" fill="#EB996E"/>
<path d="M15.6346 47.5427C15.6346 47.5427 15.4801 47.4633 15.3389 47.2427C15.1545 46.9498 15.0509 46.6133 15.0388 46.2674C15.021 45.924 15.0925 45.5819 15.2462 45.2744C15.3698 45.0405 15.4933 44.9302 15.5154 44.9479C15.3664 45.3741 15.283 45.8205 15.2683 46.2718C15.3243 46.7118 15.4478 47.1405 15.6346 47.5427Z" fill="#EB996E"/>
<path d="M12.8809 45.9587C12.9762 46.1382 13.1304 46.2793 13.3176 46.3582C13.5047 46.4372 13.7134 46.4491 13.9084 46.3921C14.1033 46.335 14.2727 46.2125 14.3878 46.0451C14.5029 45.8777 14.5567 45.6758 14.5402 45.4733C14.5009 45.2274 14.4118 44.9921 14.2782 44.7819C14.1446 44.5716 13.9695 44.391 13.7635 44.2509L12.0469 42.6975" fill="#FFBE9D"/>
<path d="M12.0469 42.6797C12.3072 42.8317 12.5486 43.0139 12.7662 43.2225L13.5032 43.8536C13.8246 44.1079 14.1202 44.3932 14.3858 44.7053C14.5224 44.8836 14.6133 45.0927 14.6506 45.3143C14.6854 45.5287 14.6448 45.7486 14.5358 45.9365C14.4511 46.0957 14.3236 46.228 14.1676 46.3184C14.0116 46.4089 13.8334 46.4539 13.6532 46.4484C13.417 46.4371 13.1935 46.3379 13.0266 46.1704C12.9118 46.0513 12.8854 45.963 12.8942 45.9586C12.903 45.9542 12.9648 46.0159 13.0839 46.1042C13.2508 46.2246 13.4519 46.288 13.6576 46.2851C13.802 46.2803 13.9425 46.2368 14.0644 46.1592C14.1862 46.0815 14.285 45.9727 14.3505 45.8438C14.425 45.681 14.4505 45.4999 14.4239 45.3228C14.3972 45.1457 14.3196 44.9802 14.2004 44.8465C13.9467 44.5508 13.6709 44.275 13.3752 44.0213L12.6691 43.3505C12.4322 43.1562 12.2228 42.9305 12.0469 42.6797Z" fill="#EB996E"/>
<path d="M15.8239 42.4194C14.4393 42.7502 13.1174 43.3031 11.9096 44.0567C11.8323 44.0943 11.7712 44.1586 11.7374 44.2376C11.7021 44.3523 11.7904 44.4627 11.8831 44.5377C12.2634 44.795 12.7263 44.9005 13.1805 44.8334C13.6278 44.7621 14.0786 44.7149 14.5309 44.6921C15.3164 44.6921 16.0402 45.0849 16.7992 45.2967C17.5583 45.5086 18.4762 45.4997 19.0057 44.9084" fill="#FFBE9D"/>
<path d="M18.998 44.9084C18.998 44.9084 18.998 44.9525 18.9274 45.0143C18.8438 45.1047 18.7471 45.182 18.6406 45.2438C18.2365 45.4637 17.7717 45.5459 17.3167 45.4777C16.6688 45.366 16.0332 45.1916 15.4191 44.9569C15.0637 44.8461 14.6923 44.7954 14.3202 44.8069C13.9319 44.829 13.5303 44.926 13.089 44.9525C12.6488 45.0041 12.2047 44.8977 11.8357 44.6524C11.7285 44.5841 11.65 44.4789 11.615 44.3568C11.5977 44.28 11.6103 44.1995 11.6503 44.1317C11.6852 44.0792 11.7302 44.0341 11.7827 43.9993C11.9548 43.889 12.1137 43.8007 12.277 43.708C12.8418 43.3851 13.4322 43.109 14.0422 42.8828C14.4559 42.7285 14.8789 42.6002 15.3087 42.4989C15.4648 42.4509 15.6266 42.4242 15.7897 42.4194C15.7897 42.4592 15.1234 42.6136 14.0996 43.0328C13.5016 43.2792 12.9207 43.5652 12.3608 43.889C12.2064 43.9816 12.0387 44.0831 11.8886 44.1802C11.818 44.2332 11.7959 44.2641 11.8092 44.3082C11.8349 44.3766 11.8832 44.4342 11.946 44.4715C12.275 44.681 12.6665 44.7699 13.0537 44.723C13.4641 44.6966 13.8745 44.6039 14.2849 44.5862C14.6829 44.5746 15.0799 44.6313 15.4588 44.7539C16.0598 44.9936 16.6798 45.1825 17.3122 45.3188C17.7343 45.391 18.1682 45.3389 18.5611 45.1688C18.7116 45.0903 18.8574 45.0034 18.998 44.9084Z" fill="#EB996E"/>
<path d="M40.6957 53.8139C40.3112 52.6734 40.2759 51.4441 40.5942 50.2834C40.6604 50.2834 40.5942 51.0866 40.5942 52.0487C40.5942 53.0107 40.7619 53.8006 40.6957 53.8139Z" fill="#EB996E"/>
<path d="M57.9555 41.7265L52.3598 48.0328C52.3598 48.0328 49.3678 69.8112 49.1559 71.5234C48.9441 73.2357 48.3748 78.699 48.3748 80.195C48.3748 81.6911 47.1348 92.3839 47.1348 92.3839C47.1348 92.3839 70.8814 97.3177 74.8575 92.3839L73.6174 83.2268L74.6942 60.5129C74.6942 60.5129 76.4594 44.7451 68.1629 41.0955C68.1497 41.0867 62.907 44.2508 57.9555 41.7265Z" fill="#FF725E"/>
<path d="M71.9756 43.3195C71.9756 43.3195 70.3384 41.7043 65.1045 43.0592C59.5926 44.4846 56.6844 49.6434 58.0437 64.2418C59.1734 76.2894 63.9351 78.0193 63.9351 78.0193C63.9351 78.0193 61.327 59.8508 61.7771 52.2515C62.342 42.6532 71.9668 45.0406 71.9668 45.0406C73.3437 44.6081 71.9756 43.3195 71.9756 43.3195Z" fill="#263238"/>
<path d="M57.9556 41.7266L53.1189 43.0593L42.2363 49.723L45.3343 59.5641L51.7244 58.8624L57.9556 41.7266Z" fill="#FF725E"/>
<path d="M51.6584 48.5576C51.7246 48.5576 51.4465 52.0881 51.045 56.4128C50.6434 60.7376 50.2638 64.2592 50.2021 64.2504C50.1403 64.2416 50.4139 60.72 50.8155 56.3952C51.2171 52.0704 51.5966 48.5532 51.6584 48.5576Z" fill="#263238"/>
<path d="M73.8116 79.1446C73.8116 79.1446 72.267 84.1092 66.8081 75.9098C61.3491 67.7104 62.1126 71.3776 62.1126 71.3776L60.9961 72.7015C60.9961 72.7015 67.0022 86.2275 73.741 84.1092L73.8116 79.1446Z" fill="#263238"/>
<path opacity="0.3" d="M51.4375 50.9233L47.1348 59.3655L50.6917 58.9771L51.4375 50.9233Z" fill="black"/>
<g opacity="0.3">
<path opacity="0.3" d="M49.4648 73.3373C52.6316 76.7837 56.3718 79.655 60.5195 81.8236C62.2538 82.7327 64.1735 83.5314 66.1153 83.2799C68.2512 83.0063 70.087 81.4617 71.0888 79.5597C72.0905 77.6577 71.9714 76.7397 72.1964 74.6038C72.4612 72.2473 72.4612 69.1008 72.5848 66.9516C72.5848 66.5721 72.6113 66.1308 72.6113 65.7115C72.6112 65.2576 72.7576 64.8157 73.0287 64.4516C73.2998 64.0874 73.6812 63.8205 74.1161 63.6904C74.1161 63.6904 72.7922 63.077 71.9405 63.2005C71.0888 63.3241 70.4092 64.0522 69.9546 64.8025C67.5318 68.7963 68.5866 74.6524 63.9661 77.159C62.439 77.9395 60.6973 78.1954 59.0103 77.8871C55.2283 77.2693 52.3333 74.798 49.5443 72.362" fill="black"/>
</g>
<path d="M54.6899 65.0714C55.8476 65.0714 56.7861 62.25 56.7861 58.7696C56.7861 55.2892 55.8476 52.4678 54.6899 52.4678C53.5322 52.4678 52.5938 55.2892 52.5938 58.7696C52.5938 62.25 53.5322 65.0714 54.6899 65.0714Z" fill="#FAFAFA"/>
<path d="M55.7934 168.372L56.2745 178.747C56.2745 178.747 45.8906 182.719 45.7891 184.647L65.939 184.44L65.8552 168.244L55.7934 168.372Z" fill="#FF725E"/>
<g opacity="0.6">
<path opacity="0.6" d="M62.5139 177.811C62.7075 177.869 62.8733 177.996 62.9798 178.167C63.0864 178.339 63.1263 178.544 63.092 178.743C63.0417 178.939 62.9181 179.109 62.7466 179.217C62.5751 179.326 62.3687 179.364 62.1696 179.325C61.9649 179.262 61.7902 179.126 61.6781 178.943C61.566 178.761 61.5243 178.543 61.5606 178.332C61.6355 178.133 61.7839 177.97 61.9752 177.878C62.1666 177.785 62.3862 177.769 62.5889 177.834" fill="white"/>
</g>
<path opacity="0.6" d="M65.9425 184.44V182.825L46.5869 183.619C46.5869 183.619 45.7043 184.016 45.8014 184.648L65.9425 184.44Z" fill="white"/>
<path d="M55.9615 178.65C55.9615 178.747 56.4602 178.787 56.9456 179.092C57.4311 179.396 57.6959 179.811 57.7885 179.771C57.8812 179.731 57.7268 179.167 57.1266 178.8C56.5264 178.434 55.9395 178.558 55.9615 178.65Z" fill="#263238"/>
<path d="M53.8602 179.546C53.8381 179.643 54.2662 179.806 54.6016 180.217C54.937 180.627 55.0429 181.068 55.14 181.064C55.2371 181.059 55.2944 180.499 54.8664 179.996C54.4383 179.493 53.8602 179.453 53.8602 179.546Z" fill="#263238"/>
<path d="M52.7039 182.088C52.7921 182.088 52.9245 181.616 52.6641 181.077C52.4038 180.539 51.9448 180.332 51.9051 180.415C51.8654 180.499 52.1522 180.782 52.3464 181.227C52.5406 181.673 52.5847 182.079 52.7039 182.088Z" fill="#263238"/>
<path d="M56.1149 176.271C56.159 176.364 56.6091 176.223 57.1652 176.271C57.7212 176.32 58.1537 176.474 58.2067 176.391C58.2596 176.307 57.836 175.949 57.1784 175.927C56.5209 175.905 56.0663 176.201 56.1149 176.271Z" fill="#263238"/>
<path opacity="0.3" d="M55.9072 170.429L55.9911 172.278L65.8939 172.083L65.8895 170.415L55.9072 170.429Z" fill="black"/>
<path d="M56.0576 174.18C56.3883 174.271 56.7375 174.271 57.0682 174.18C57.4303 174.11 57.7829 173.997 58.1185 173.844C58.3179 173.753 58.511 173.648 58.6966 173.531C58.8066 173.465 58.9075 173.385 58.9967 173.293C59.0589 173.221 59.0963 173.131 59.1035 173.037C59.1106 172.942 59.0871 172.848 59.0364 172.767C58.986 172.698 58.9196 172.641 58.8428 172.603C58.766 172.565 58.681 172.545 58.5951 172.547C58.4664 172.545 58.3382 172.565 58.2156 172.604C58.0012 172.656 57.7927 172.73 57.5934 172.825C57.2533 172.98 56.9404 173.188 56.6666 173.443C56.2032 173.884 56.0488 174.25 56.0841 174.272C56.1194 174.294 56.3533 173.99 56.8255 173.628C57.0974 173.42 57.3938 173.247 57.7081 173.112C57.8963 173.037 58.0895 172.975 58.2862 172.926C58.498 172.869 58.6834 172.869 58.7275 172.962C58.7716 173.054 58.7275 173.01 58.7054 173.076C58.6415 173.145 58.567 173.203 58.4848 173.248C58.3142 173.363 58.1374 173.467 57.9552 173.562C57.644 173.719 57.319 173.848 56.9844 173.946C56.6704 174.002 56.3607 174.08 56.0576 174.18Z" fill="#263238"/>
<path d="M56.1855 174.316C56.376 174.028 56.466 173.685 56.4415 173.341C56.4559 172.967 56.4051 172.594 56.2914 172.238C56.2262 172.026 56.1389 171.822 56.0311 171.629C55.9755 171.496 55.8866 171.38 55.7729 171.292C55.6592 171.204 55.5247 171.146 55.3823 171.126C55.292 171.124 55.2033 171.15 55.1283 171.201C55.0533 171.251 54.9956 171.324 54.9631 171.408C54.9114 171.526 54.8772 171.651 54.8616 171.779C54.8261 172.004 54.8261 172.233 54.8616 172.458C54.9209 172.836 55.0725 173.194 55.3029 173.5C55.7001 174.016 56.1149 174.131 56.1193 174.096C56.1237 174.06 55.8104 173.862 55.5015 173.363C55.3254 173.076 55.2139 172.753 55.1749 172.419C55.1488 172.224 55.1488 172.026 55.1749 171.832C55.2058 171.62 55.2853 171.443 55.3647 171.465C55.4441 171.487 55.6383 171.624 55.7221 171.792C55.8236 171.966 55.9093 172.149 55.9781 172.339C56.0918 172.662 56.1601 172.999 56.1811 173.341C56.2341 173.932 56.1326 174.303 56.1855 174.316Z" fill="#263238"/>
<path d="M75.334 162.079L83.4805 168.518C83.4805 168.518 79.672 178.963 81.0621 180.301L94.1159 164.952L81.83 154.392L75.334 162.079Z" fill="#FF725E"/>
<g opacity="0.6">
<path opacity="0.6" d="M86.852 163.204C87.0225 163.095 87.2274 163.052 87.4276 163.083C87.6279 163.115 87.8094 163.219 87.9376 163.377C88.0527 163.543 88.0999 163.747 88.0696 163.947C88.0392 164.147 87.9336 164.328 87.7743 164.453C87.5926 164.566 87.376 164.609 87.165 164.574C86.9539 164.539 86.7627 164.429 86.6269 164.264C86.5233 164.077 86.4962 163.858 86.5514 163.652C86.6066 163.446 86.7397 163.27 86.9226 163.16" fill="white"/>
</g>
<path opacity="0.6" d="M94.116 164.948L92.8936 163.893L80.7975 179.03C80.7975 179.03 80.515 179.965 81.0623 180.296L94.116 164.948Z" fill="white"/>
<path d="M83.1892 168.699C83.2687 168.76 83.6305 168.412 84.1778 168.257C84.725 168.103 85.2148 168.165 85.2413 168.072C85.2678 167.979 84.7426 167.719 84.0763 167.931C83.4099 168.143 83.1098 168.655 83.1892 168.699Z" fill="#263238"/>
<path d="M82.4883 170.874C82.5457 170.954 82.9296 170.737 83.4857 170.751C84.0417 170.764 84.4168 170.98 84.4742 170.901C84.5316 170.821 84.152 170.415 83.4901 170.411C82.8281 170.407 82.4177 170.813 82.4883 170.874Z" fill="#263238"/>
<path d="M83.6354 173.425C83.7104 173.372 83.4235 172.948 82.8498 172.794C82.2761 172.639 81.8172 172.847 81.8525 172.931C81.8878 173.015 82.2938 172.988 82.7616 173.125C83.2294 173.262 83.5648 173.496 83.6354 173.425Z" fill="#263238"/>
<path d="M81.4987 167.022C81.5914 167.048 81.7812 166.62 82.1695 166.219C82.5579 165.817 82.9727 165.605 82.9418 165.508C82.9109 165.411 82.3725 165.508 81.9224 165.985C81.4723 166.461 81.3884 167.008 81.4987 167.022Z" fill="#263238"/>
<path opacity="0.3" d="M76.9492 163.346L78.4011 164.497L84.7471 156.894L83.4849 155.804L76.9492 163.346Z" fill="black"/>
<path d="M79.8794 165.693C79.9058 165.72 80.2059 165.464 80.5281 164.921C80.7157 164.602 80.8639 164.261 80.9694 163.906C81.0297 163.696 81.0769 163.482 81.1106 163.266C81.1292 163.139 81.1292 163.009 81.1106 162.882C81.0974 162.788 81.0542 162.701 80.9874 162.633C80.9207 162.566 80.8338 162.521 80.7399 162.507C80.6574 162.502 80.5748 162.515 80.4983 162.546C80.4218 162.578 80.3535 162.626 80.2986 162.688C80.2146 162.785 80.1448 162.893 80.0912 163.01C79.9939 163.209 79.9128 163.416 79.8485 163.628C79.7452 163.988 79.6991 164.362 79.7117 164.736C79.689 165.079 79.7722 165.421 79.95 165.715C80.0073 165.715 79.9191 165.331 79.95 164.736C79.984 164.187 80.1344 163.651 80.3913 163.165C80.4884 162.966 80.6031 162.829 80.709 162.847C80.8149 162.864 80.762 162.847 80.784 162.935C80.7965 163.03 80.7965 163.127 80.784 163.222C80.756 163.424 80.7177 163.624 80.6693 163.822C80.5845 164.162 80.4678 164.493 80.3207 164.811C80.15 165.092 80.0024 165.388 79.8794 165.693Z" fill="#263238"/>
<path d="M80.0655 165.689C80.0964 165.689 79.9552 165.292 79.4962 164.855C79.2227 164.599 78.9079 164.392 78.5651 164.242C78.3605 164.153 78.1476 164.085 77.9296 164.039C77.793 163.994 77.6473 163.986 77.5065 164.015C77.3658 164.043 77.2349 164.108 77.1264 164.202C77.0698 164.271 77.034 164.356 77.0231 164.445C77.0122 164.534 77.0265 164.624 77.0646 164.705C77.1215 164.82 77.1943 164.927 77.2809 165.023C77.4301 165.195 77.6041 165.343 77.7972 165.464C78.1213 165.665 78.4892 165.785 78.8695 165.813C79.5227 165.848 79.8801 165.614 79.8581 165.583C79.5393 165.606 79.2193 165.606 78.9004 165.583C78.5673 165.527 78.2498 165.401 77.9693 165.212C77.8046 165.103 77.6561 164.971 77.528 164.82C77.3868 164.656 77.3073 164.484 77.3735 164.436C77.4454 164.394 77.5255 164.367 77.6084 164.358C77.6913 164.349 77.7752 164.357 77.8546 164.383C78.0515 164.421 78.2449 164.475 78.4327 164.546C78.7482 164.673 79.0452 164.842 79.3153 165.049C79.8095 165.398 80.0214 165.72 80.0655 165.689Z" fill="#263238"/>
<path d="M52.7441 124.48C52.7441 124.48 53.2825 99.6962 52.7441 99.6962C52.2057 99.6962 48.384 97.5161 48.384 97.5161L43.6091 134.343C43.6091 134.343 43.1678 138.478 48.2958 141.404C53.4237 144.33 76.2877 164.656 76.2877 164.656L84.037 155.217C84.037 155.217 68.9841 139.528 62.8544 134.343C58.0001 130.305 52.7441 124.48 52.7441 124.48Z" fill="#263238"/>
<path d="M66.7644 118.703L67.2895 114.78C67.2895 114.78 71.0583 106.836 71.5967 103.456C72.1351 100.076 71.782 92.75 71.782 92.75H47.9736C47.9736 92.75 48.0751 119.63 50.948 127.172C50.948 127.172 52.4043 141.602 52.6206 142.812C53.0619 145.38 54.6638 171.655 54.6638 171.655L66.6673 171.214C66.6673 171.214 67.7088 147.057 66.8747 140.199C66.4643 136.801 66.2701 133.182 66.1774 130.19C66.0642 126.352 66.2605 122.51 66.7644 118.703Z" fill="#263238"/>
<path d="M48.6223 100.592C48.6268 100.63 48.6268 100.669 48.6223 100.707C48.6223 100.799 48.6223 100.914 48.6443 101.055C48.6443 101.378 48.6796 101.828 48.7061 102.379C48.7502 103.54 48.8385 105.221 48.9576 107.295C49.196 111.444 49.6417 117.167 50.2816 123.474C50.9215 129.78 51.6408 135.477 52.1483 139.603C52.3998 141.651 52.5896 143.315 52.744 144.489C52.8102 145.053 52.8632 145.495 52.8985 145.813C52.8985 145.954 52.925 146.068 52.9338 146.161C52.9426 146.254 52.9338 146.28 52.9338 146.28C52.9193 146.243 52.909 146.205 52.9029 146.166L52.85 145.821L52.6514 144.497C52.4925 143.328 52.263 141.664 51.9806 139.621C51.4334 135.499 50.7052 129.802 50.0477 123.491C49.3901 117.181 48.9753 111.453 48.7767 107.3C48.6752 105.221 48.6178 103.54 48.6002 102.379C48.6002 101.81 48.6002 101.364 48.5781 101.055V100.711C48.5887 100.67 48.6035 100.63 48.6223 100.592Z" fill="#455A64"/>
<path d="M66.1547 132.406C66.1887 132.533 66.2124 132.663 66.2253 132.794C66.2606 133.068 66.3136 133.443 66.3798 133.915C66.4989 134.895 66.649 136.311 66.7858 138.063C67.0682 141.572 67.28 146.448 67.3595 151.797C67.4389 157.145 67.3594 162.031 67.1476 165.543C67.0594 167.309 66.9446 168.721 66.8519 169.7C66.799 170.173 66.7549 170.548 66.724 170.826C66.7147 170.958 66.6955 171.089 66.6666 171.218C66.6549 171.086 66.6549 170.953 66.6666 170.821C66.6887 170.543 66.7151 170.168 66.7504 169.692C66.8166 168.712 66.9049 167.291 66.9755 165.534C67.1211 162.026 67.1829 157.15 67.1167 151.801C67.0505 146.452 66.8519 141.58 66.6092 138.077C66.4945 136.311 66.3709 134.904 66.2783 133.924C66.2297 133.452 66.19 133.077 66.1635 132.799C66.1498 132.668 66.1468 132.537 66.1547 132.406Z" fill="#455A64"/>
<path d="M70.8372 42.7678C70.8372 42.7678 74.7339 43.8049 75.5636 49.6125C76.3932 55.42 74.8575 57.0793 74.8575 57.0793C74.8575 57.0793 75.4886 46.2674 70.6475 44.7934L70.8372 42.9796" fill="#263238"/>
<path d="M44.2875 61.7353L24.1729 61.3425L24.4067 62.3178L44.1904 62.6091L44.2875 61.7353Z" fill="#263238"/>
<path d="M68.6791 44.5904C67.9246 44.4063 67.1304 44.4761 66.4196 44.789C64.7912 45.473 61.808 47.4368 61.5962 53.0149L61.252 62.0043L74.116 63.6901C74.116 63.6901 75.2104 46.3291 68.6791 44.5904Z" fill="#FF725E"/>
<path d="M45.0032 63.6373L61.3315 68.5446L61.5742 61.978L71.3447 63.399L70.7974 74.0786C70.7419 75.6026 70.1871 77.0662 69.2182 78.2439C68.2494 79.4217 66.9203 80.2483 65.4356 80.5967C63.7282 80.9958 61.9331 80.7358 60.4091 79.8685L43.0791 70.0142L45.0032 63.6373Z" fill="#FFBE9D"/>
<path d="M74.1159 63.6903C74.1159 63.6903 74.1159 63.633 74.1159 63.5359C74.1159 63.4388 74.1159 63.2799 74.0939 63.0946C74.0939 62.7018 74.063 62.1502 74.0365 61.4441C73.9923 60.0099 73.9262 57.9622 73.8467 55.4335C73.807 54.1714 73.7673 52.7857 73.7276 51.3029C73.7276 50.9322 73.7055 50.5527 73.6923 50.1688C73.6923 49.9834 73.657 49.7936 73.6349 49.5995C73.6128 49.4053 73.5687 49.22 73.5157 49.0302C73.1904 47.7992 72.4801 46.7044 71.4885 45.9058C70.4969 45.1071 69.2759 44.6463 68.0038 44.5907C67.0902 44.5819 66.1935 44.8378 65.4222 45.3277C64.6256 45.8352 63.9457 46.5061 63.4275 47.2959C62.6875 48.4316 62.1874 49.7066 61.958 51.0425C61.7324 52.3229 61.5982 53.6178 61.5564 54.9172C61.4858 57.4503 61.4196 59.8333 61.3578 62.0001L61.274 61.8986L70.5722 63.1696L73.1848 63.5359L73.8864 63.6683L74.1292 63.7124L73.8864 63.6683L73.2112 63.5932L70.612 63.2755L61.2342 62.1016H61.1504V62.0134C61.2033 59.8422 61.2431 57.4635 61.3269 54.926C61.3622 53.6149 61.4935 52.308 61.7197 51.0161C61.9534 49.6496 62.4656 48.3457 63.2245 47.1855C63.7605 46.3683 64.4646 45.6748 65.2898 45.1511C66.0976 44.6372 67.0378 44.3704 67.995 44.3833C68.8916 44.4214 69.7691 44.6553 70.5657 45.0685C71.3624 45.4817 72.059 46.0642 72.6067 46.7751C73.1188 47.4279 73.4913 48.1789 73.7011 48.9817C73.7496 49.1758 73.7805 49.3744 73.8202 49.573C73.86 49.7716 73.86 49.9658 73.8776 50.1643C73.8776 50.5483 73.8776 50.9322 73.9041 51.3073C73.935 52.8078 73.9615 54.2067 73.9879 55.4821C74.0321 58.0152 74.0674 60.0672 74.0939 61.5015C74.0939 62.1943 74.0939 62.7415 74.1159 63.1255V63.5668C74.12 63.6079 74.12 63.6492 74.1159 63.6903Z" fill="#263238"/>
<path d="M45.3341 63.8315L41.4153 60.9321C40.7004 60.4025 39.5883 60.4908 38.7012 60.4334C36.936 60.2745 34.0543 61.316 33.944 61.519L35.1267 62.4634L27.5098 62.2295C27.7711 62.7479 28.1681 63.1858 28.6584 63.4966C29.1487 63.8074 29.7141 63.9795 30.2944 63.9947C30.2944 63.9947 30.5371 65.7158 32.748 66.0424C32.748 66.0424 33.3217 67.4369 34.553 67.8429C34.553 67.8429 34.7957 69.4007 36.7595 69.3169L43.4364 70.0627L45.3341 63.8315Z" fill="#FFBE9D"/>
<path d="M35.0524 64.2639C34.2488 64.3339 33.4403 64.3251 32.6385 64.2375C31.8332 64.2319 31.0305 64.1461 30.2422 63.9815C31.0445 63.9167 31.851 63.9255 32.6517 64.008C33.4581 64.0194 34.2617 64.1051 35.0524 64.2639Z" fill="#EB996E"/>
<path d="M36.9855 66.0995C36.2884 66.2128 35.5813 66.2513 34.876 66.2143C34.1708 66.2513 33.4637 66.2128 32.7666 66.0995C33.4634 65.9837 34.1708 65.9452 34.876 65.9848C35.5813 65.9452 36.2887 65.9837 36.9855 66.0995Z" fill="#EB996E"/>
<path d="M39.0543 67.8296C38.3575 67.9454 37.6501 67.9839 36.9449 67.9443C36.2411 67.9841 35.5351 67.9456 34.8398 67.8296C35.5354 67.7162 36.2411 67.6777 36.9449 67.7148C37.6501 67.6779 38.3572 67.7163 39.0543 67.8296Z" fill="#EB996E"/>
<path d="M62.4131 71.8764C62.091 71.3828 61.8469 70.8425 61.6894 70.2745C61.4527 69.7337 61.3037 69.1587 61.248 68.571C61.5171 69.0903 61.7315 69.636 61.8879 70.1995C62.122 70.7382 62.298 71.3004 62.4131 71.8764Z" fill="#EB996E"/>
<path d="M63.5734 71.2409C63.1199 70.8207 62.7077 70.3582 62.3422 69.8596C61.9172 69.4126 61.5373 68.9248 61.208 68.4033C61.7146 68.7741 62.1611 69.2206 62.5319 69.7272C62.9512 70.1782 63.3021 70.6882 63.5734 71.2409Z" fill="#EB996E"/>
</svg>
