<svg width="16" height="16" viewBox="0 0 16 16" fill="none" xmlns="http://www.w3.org/2000/svg">
<path d="M14.5 3.5H12V2.625C12 2.55625 11.9438 2.5 11.875 2.5H11C10.9312 2.5 10.875 2.55625 10.875 2.625V3.5H8.5625V2.625C8.5625 2.55625 8.50625 2.5 8.4375 2.5H7.5625C7.49375 2.5 7.4375 2.55625 7.4375 2.625V3.5H5.125V2.625C5.125 2.55625 5.06875 2.5 5 2.5H4.125C4.05625 2.5 4 2.55625 4 2.625V3.5H1.5C1.22344 3.5 1 3.72344 1 4V13C1 13.2766 1.22344 13.5 1.5 13.5H14.5C14.7766 13.5 15 13.2766 15 13V4C15 3.72344 14.7766 3.5 14.5 3.5ZM6.625 10.75C6.625 10.8188 6.56875 10.875 6.5 10.875H3.625C3.55625 10.875 3.5 10.8188 3.5 10.75V10C3.5 9.93125 3.55625 9.875 3.625 9.875H6.5C6.56875 9.875 6.625 9.93125 6.625 10V10.75ZM6.625 8.625C6.625 8.69375 6.56875 8.75 6.5 8.75H3.625C3.55625 8.75 3.5 8.69375 3.5 8.625V7.875C3.5 7.80625 3.55625 7.75 3.625 7.75H6.5C6.56875 7.75 6.625 7.80625 6.625 7.875V8.625ZM12.4766 7.19844L9.89844 10.7719C9.87542 10.8038 9.84514 10.8298 9.8101 10.8478C9.77505 10.8657 9.73625 10.8751 9.69687 10.8751C9.6575 10.8751 9.6187 10.8657 9.58365 10.8478C9.54861 10.8298 9.51833 10.8038 9.49531 10.7719L7.71094 8.3C7.65156 8.21719 7.71094 8.10156 7.8125 8.10156H8.67031C8.75 8.10156 8.825 8.14062 8.87187 8.20469L9.69687 9.34688L11.3172 7.10156C11.3641 7.03594 11.4391 6.99844 11.5188 6.99844H12.375C12.4766 7 12.5359 7.11563 12.4766 7.19844Z" fill="#29292D"/>
</svg>
