<svg width="20" height="20" viewBox="0 0 20 20" fill="none" xmlns="http://www.w3.org/2000/svg">
<path d="M16.0748 14.4084L14.9998 13.3334V9.16671C14.9998 6.60837 13.6331 4.46671 11.2498 3.90004V3.33337C11.2498 2.64171 10.6915 2.08337 9.9998 2.08337C9.30813 2.08337 8.7498 2.64171 8.7498 3.33337V3.90004C6.35813 4.46671 4.9998 6.60004 4.9998 9.16671V13.3334L3.9248 14.4084C3.3998 14.9334 3.76647 15.8334 4.50813 15.8334H15.4831C16.2331 15.8334 16.5998 14.9334 16.0748 14.4084ZM13.3331 14.1667H6.66647V9.16671C6.66647 7.10004 7.9248 5.41671 9.9998 5.41671C12.0748 5.41671 13.3331 7.10004 13.3331 9.16671V14.1667ZM9.9998 18.3334C10.9165 18.3334 11.6665 17.5834 11.6665 16.6667H8.33313C8.33313 17.5834 9.0748 18.3334 9.9998 18.3334Z" fill="#78797A" fill-opacity="0.6"/>
</svg>
