<svg width="70" height="70" viewBox="0 0 70 70" fill="none" xmlns="http://www.w3.org/2000/svg">
<path d="M15.0923 45.4577C13.8195 45.6342 12.6765 46.2479 11.7412 47.2178C9.71482 49.3192 9.49993 52.5436 11.4282 54.403L25.4975 67.9698C26.2831 68.7274 27.2376 69.0239 28.2831 68.9402C29.3286 68.8565 30.3157 68.4045 31.1731 67.5154C32.8098 65.8181 32.9207 63.2733 31.4209 61.8271L28.9213 59.4167C26.5645 57.1441 28.39 52.8212 31.9097 52.3156L47.0338 50.2097C48.3066 50.0332 49.4496 49.4195 50.3849 48.4496C52.4113 46.3482 52.6262 43.1238 50.6979 41.2644L37.6285 28.6617C37.4204 30.0209 36.6864 31.4968 35.5952 32.6283C34.5041 33.7599 33.0558 34.5471 31.7051 34.8044L33.1335 36.1818C35.4902 38.4544 33.7361 42.8462 30.2165 43.3518L15.0923 45.4577Z" fill="url(#paint0_linear_14_211)"/>
<path d="M56.9181 24.315C58.1106 24.1994 59.199 23.6715 60.1075 22.8038C62.0759 20.9237 62.3997 17.9281 60.6746 16.1219L48.0875 2.94341C47.3846 2.20756 46.5067 1.89474 45.5295 1.93265C44.5523 1.97055 43.6154 2.35376 42.7826 3.14918C41.1927 4.66771 40.9919 7.03422 42.3336 8.43903L44.5699 10.7804C46.6784 12.9879 44.812 16.9453 41.5137 17.2813L27.343 18.6635C26.1505 18.7791 25.0621 19.307 24.1536 20.1747C22.1852 22.0548 21.8614 25.0504 23.5865 26.8566L35.2791 39.0985C35.525 37.8402 36.2655 36.4934 37.3254 35.4811C38.3853 34.4687 39.7647 33.7909 41.0329 33.6029L39.755 32.265C37.6465 30.0574 39.4491 26.0332 42.7474 25.6971L56.9181 24.315Z" fill="url(#paint1_linear_14_211)"/>
<path d="M62.8632 62.2337C62.4444 62.1967 62.0783 62.5034 62.0413 62.9221C62.0044 63.3409 62.311 63.707 62.7298 63.744C63.1485 63.781 63.5146 63.4743 63.5516 63.0555C63.5886 62.6368 63.282 62.2707 62.8632 62.2337ZM63.403 56.1239C59.6136 55.7892 56.2664 58.5929 55.9316 62.3823C55.5968 66.1718 58.4006 69.5189 62.19 69.8537C65.9794 70.1885 69.3266 67.3847 69.6614 63.5953C69.9962 59.8059 67.1924 56.4587 63.403 56.1239ZM64.1671 64.6251L58.3137 66.7439L61.4259 61.3526L67.2793 59.2338L64.1671 64.6251Z" fill="url(#paint2_linear_14_211)"/>
<defs>
<linearGradient id="paint0_linear_14_211" x1="8.77406" y1="50.7349" x2="30.4736" y2="70.1977" gradientUnits="userSpaceOnUse">
<stop stop-color="#D45071"/>
<stop offset="1" stop-color="#E97961"/>
</linearGradient>
<linearGradient id="paint1_linear_14_211" x1="63.0066" y1="19.641" x2="43.5371" y2="0.677155" gradientUnits="userSpaceOnUse">
<stop stop-color="#D45071"/>
<stop offset="1" stop-color="#E97961"/>
</linearGradient>
<linearGradient id="paint2_linear_14_211" x1="70.0952" y1="57.016" x2="56.101" y2="56.4293" gradientUnits="userSpaceOnUse">
<stop stop-color="#D45071"/>
<stop offset="1" stop-color="#E97961"/>
</linearGradient>
</defs>
</svg>
