<svg width="18" height="18" viewBox="0 0 18 18" fill="none" xmlns="http://www.w3.org/2000/svg">
<path d="M7.47273 3.35639C7.97333 3.23921 8.48586 3.18063 9 3.18184C14.0909 3.18184 17 9.00002 17 9.00002C16.5585 9.82592 16.032 10.6035 15.4291 11.32M10.5418 10.5418C10.3421 10.7562 10.1012 10.9281 9.83357 11.0474C9.56593 11.1666 9.27702 11.2308 8.98407 11.2359C8.69111 11.2411 8.40012 11.1872 8.12844 11.0775C7.85677 10.9677 7.60998 10.8044 7.4028 10.5972C7.19562 10.39 7.03229 10.1433 6.92255 9.87158C6.81282 9.59991 6.75893 9.30891 6.7641 9.01596C6.76927 8.723 6.83339 8.43409 6.95264 8.16646C7.07189 7.89882 7.24382 7.65795 7.45818 7.45821M13.32 13.32C12.0768 14.2677 10.563 14.7927 9 14.8182C3.90909 14.8182 1 9.00002 1 9.00002C1.90465 7.31413 3.15937 5.84119 4.68 4.68002L13.32 13.32Z" stroke="#78797A" stroke-width="2" stroke-linecap="round" stroke-linejoin="round"/>
<path d="M1 1L17 17" stroke="#78797A" stroke-width="2" stroke-linecap="round" stroke-linejoin="round"/>
</svg>
