<svg width="70" height="70" viewBox="0 0 70 70" fill="none" xmlns="http://www.w3.org/2000/svg">
<path d="M61.0312 70H9.07812C4.04688 70 0 65.9531 0 61.0312V9.07812C0 4.04688 4.04688 0 9.07812 0H61.0312C65.9531 0 70 4.04688 70 9.07812V61.0312C70 65.9531 65.9531 70 61.0312 70Z" fill="url(#paint0_linear_15_414)"/>
<path d="M20.194 42.293C19.2618 42.4223 18.4247 42.8717 17.7397 43.582C16.2556 45.1211 16.0982 47.4826 17.5105 48.8445L27.8147 58.7807C28.3901 59.3355 29.0892 59.5527 29.8549 59.4914C30.6206 59.4301 31.3436 59.0991 31.9715 58.4479C33.1702 57.2048 33.2514 55.341 32.153 54.2818L30.3223 52.5165C28.5962 50.852 29.9332 47.6859 32.511 47.3157L43.5878 45.7733C44.52 45.644 45.3571 45.1946 46.0421 44.4842C47.5263 42.9451 47.6836 40.5836 46.2714 39.2218L36.6994 29.9917C36.547 30.9871 36.0094 32.0681 35.2102 32.8968C34.4111 33.7256 33.3504 34.3021 32.3612 34.4906L33.4073 35.4993C35.1334 37.1638 33.8487 40.3803 31.2709 40.7506L20.194 42.293Z" fill="white"/>
<path d="M50.8273 26.8082C51.7007 26.7235 52.4978 26.3369 53.1632 25.7014C54.6048 24.3244 54.842 22.1304 53.5785 20.8076L44.3598 11.1557C43.845 10.6168 43.2021 10.3877 42.4864 10.4155C41.7707 10.4432 41.0845 10.7239 40.4745 11.3064C39.3101 12.4186 39.163 14.1518 40.1457 15.1807L41.7836 16.8955C43.3278 18.5123 41.9609 21.4106 39.5452 21.6568L29.1666 22.669C28.2932 22.7537 27.4961 23.1403 26.8308 23.7758C25.3891 25.1528 25.152 27.3468 26.4154 28.6696L34.979 37.6355C35.1591 36.714 35.7014 35.7276 36.4777 34.9861C37.254 34.2447 38.2642 33.7482 39.1931 33.6106L38.2572 32.6307C36.7129 31.0139 38.0331 28.0666 40.4488 27.8204L50.8273 26.8082Z" fill="white"/>
<path d="M55.1813 54.5796C54.8746 54.5525 54.6065 54.7771 54.5794 55.0838C54.5523 55.3905 54.7769 55.6586 55.0836 55.6857C55.3903 55.7128 55.6584 55.4882 55.6855 55.1815C55.7126 54.8748 55.488 54.6067 55.1813 54.5796ZM55.5766 50.1048C52.8013 49.8596 50.3498 51.9131 50.1046 54.6885C49.8594 57.4638 51.9129 59.9153 54.6883 60.1604C57.4636 60.4056 59.9151 58.3522 60.1603 55.5768C60.4054 52.8015 58.352 50.35 55.5766 50.1048ZM56.1363 56.331L51.8492 57.8828L54.1286 53.9343L58.4156 52.3825L56.1363 56.331Z" fill="white"/>
<defs>
<linearGradient id="paint0_linear_15_414" x1="69.2543" y1="1.52172" x2="-1.80362" y2="4.80839" gradientUnits="userSpaceOnUse">
<stop stop-color="#D45071"/>
<stop offset="1" stop-color="#E97961"/>
</linearGradient>
</defs>
</svg>
